<svg version="1.1" viewBox="0.0 0.0 960.0 540.0" fill="none" stroke="none" stroke-linecap="square" stroke-miterlimit="10" xmlns:xlink="http://www.w3.org/1999/xlink" xmlns="http://www.w3.org/2000/svg"><clipPath id="gedf8b44dcf_0_0.0"><path d="m0 0l960.0 0l0 540.0l-960.0 0l0 -540.0z" clip-rule="nonzero"/></clipPath><g clip-path="url(#gedf8b44dcf_0_0.0)"><path fill="#ffffff" d="m0 0l960.0 0l0 540.0l-960.0 0z" fill-rule="evenodd"/><path fill="#000000" fill-opacity="0.0" d="m564.49475 397.45276l216.25195 0l0 38.771637l-216.25195 0z" fill-rule="evenodd"/><path fill="#3ddb85" d="m573.24866 412.55527q1.296875 0 2.53125 0.671875q1.25 0.671875 1.9375 1.921875q0.6875 1.234375 0.6875 2.5625q0 2.15625 -1.515625 3.671875q-1.5 1.5 -3.640625 1.5q-2.140625 0 -3.65625 -1.5q-1.5 -1.515625 -1.5 -3.671875q0 -1.34375 0.6875 -2.578125q0.6875 -1.234375 1.921875 -1.90625q1.25 -0.671875 2.546875 -0.671875z" fill-rule="nonzero"/><path fill="#000000" d="m594.4166 407.30527l6.171875 0q1.296875 0 2.421875 0.609375q1.140625 0.59375 1.8125 1.65625q0.6875 1.046875 0.6875 2.375q0 1.25 -0.640625 2.1875q-0.640625 0.921875 -1.71875 1.4375l0 0.09375q1.296875 0.421875 2.109375 1.484375q0.8125 1.0625 0.8125 2.46875q0 1.390625 -0.703125 2.515625q-0.703125 1.109375 -1.890625 1.734375q-1.1875 0.625 -2.5625 0.625l-6.5 0l0 -17.1875zm6.171875 7.421875q0.859375 0 1.515625 -0.390625q0.65625 -0.40625 1.015625 -1.03125q0.359375 -0.640625 0.359375 -1.3125q0 -0.65625 -0.34375 -1.28125q-0.34375 -0.640625 -0.984375 -1.046875q-0.625 -0.40625 -1.46875 -0.40625l-4.234375 0l0 5.46875l4.140625 0zm0.453125 7.828125q0.859375 0 1.546875 -0.4375q0.6875 -0.4375 1.046875 -1.109375q0.375 -0.6875 0.375 -1.40625q0 -0.71875 -0.390625 -1.40625q-0.375 -0.6875 -1.078125 -1.109375q-0.6875 -0.421875 -1.59375 -0.421875l-4.5 0l0 5.890625l4.59375 0zm11.950195 2.328125q-2.203125 0 -3.375 -1.296875q-1.15625 -1.296875 -1.15625 -3.625l0 -7.703125l2.03125 0l0 7.390625q0 1.75 0.796875 2.5625q0.796875 0.8125 2.140625 0.8125q1.03125 0 1.828125 -0.546875q0.8125 -0.546875 1.25 -1.4375q0.4375 -0.890625 0.4375 -1.875l0 -6.90625l2.046875 0l0 12.234375l-1.9375 0l0 -1.78125l-0.109375 0q-0.5 0.921875 -1.609375 1.546875q-1.09375 0.625 -2.34375 0.625zm13.172119 0q-1.96875 0 -3.296875 -0.921875q-1.3125 -0.9375 -1.859375 -2.375l1.828125 -0.8125q0.453125 1.109375 1.34375 1.703125q0.90625 0.59375 1.984375 0.59375q1.15625 0 1.96875 -0.46875q0.8125 -0.46875 0.8125 -1.328125q0 -0.765625 -0.65625 -1.234375q-0.640625 -0.46875 -2.03125 -0.796875l-1.484375 -0.390625q-1.46875 -0.359375 -2.40625 -1.21875q-0.921875 -0.875 -0.921875 -2.234375q0 -1.0625 0.625 -1.859375q0.640625 -0.8125 1.6875 -1.234375q1.0625 -0.4375 2.28125 -0.4375q1.609375 0 2.875 0.703125q1.265625 0.6875 1.78125 1.9375l-1.765625 0.8125q-0.8125 -1.625 -2.90625 -1.625q-1.015625 0 -1.765625 0.46875q-0.75 0.46875 -0.75 1.1875q0 0.671875 0.515625 1.09375q0.53125 0.421875 1.59375 0.671875l1.78125 0.46875q1.796875 0.453125 2.703125 1.359375q0.90625 0.890625 0.90625 2.1875q0 1.125 -0.640625 1.984375q-0.640625 0.84375 -1.75 1.3125q-1.109375 0.453125 -2.453125 0.453125zm8.169434 -14.890625q-0.609375 0 -1.046875 -0.421875q-0.421875 -0.4375 -0.421875 -1.03125q0 -0.625 0.421875 -1.046875q0.4375 -0.421875 1.046875 -0.421875q0.625 0 1.03125 0.421875q0.421875 0.421875 0.421875 1.046875q0 0.59375 -0.421875 1.03125q-0.40625 0.421875 -1.03125 0.421875zm-1.015625 2.265625l2.046875 0l0 12.234375l-2.046875 0l0 -12.234375zm5.236511 0l1.9375 0l0 1.796875l0.09375 0q0.515625 -0.921875 1.609375 -1.546875q1.109375 -0.640625 2.359375 -0.640625q2.203125 0 3.359375 1.28125q1.171875 1.28125 1.171875 3.5l0 7.84375l-2.03125 0l0 -7.53125q0 -1.703125 -0.828125 -2.46875q-0.8125 -0.78125 -2.234375 -0.78125q-0.984375 0 -1.765625 0.5625q-0.765625 0.546875 -1.203125 1.453125q-0.4375 0.890625 -0.4375 1.875l0 6.890625l-2.03125 0l0 -12.234375zm18.901428 12.625q-1.75 0 -3.140625 -0.84375q-1.390625 -0.84375 -2.171875 -2.3125q-0.78125 -1.484375 -0.78125 -3.328125q0 -1.75 0.734375 -3.25q0.734375 -1.5 2.09375 -2.390625q1.359375 -0.890625 3.109375 -0.890625q1.796875 0 3.109375 0.8125q1.328125 0.796875 2.03125 2.21875q0.703125 1.40625 0.703125 3.234375q0 0.28125 -0.046875 0.625l-9.6875 0q0.0625 1.390625 0.65625 2.359375q0.609375 0.953125 1.53125 1.4375q0.9375 0.46875 1.9375 0.46875q2.40625 0 3.625 -2.203125l1.734375 0.84375q-0.78125 1.453125 -2.15625 2.34375q-1.359375 0.875 -3.28125 0.875zm3.53125 -7.8125q-0.046875 -0.765625 -0.4375 -1.53125q-0.375 -0.765625 -1.1875 -1.296875q-0.8125 -0.53125 -2.0625 -0.53125q-1.4375 0 -2.453125 0.9375q-1.0 0.921875 -1.3125 2.421875l7.453125 0zm8.928833 7.8125q-1.96875 0 -3.296875 -0.921875q-1.3125 -0.9375 -1.859375 -2.375l1.828125 -0.8125q0.453125 1.109375 1.34375 1.703125q0.90625 0.59375 1.984375 0.59375q1.15625 0 1.96875 -0.46875q0.8125 -0.46875 0.8125 -1.328125q0 -0.765625 -0.65625 -1.234375q-0.640625 -0.46875 -2.03125 -0.796875l-1.484375 -0.390625q-1.46875 -0.359375 -2.40625 -1.21875q-0.921875 -0.875 -0.921875 -2.234375q0 -1.0625 0.625 -1.859375q0.640625 -0.8125 1.6875 -1.234375q1.0625 -0.4375 2.28125 -0.4375q1.609375 0 2.875 0.703125q1.265625 0.6875 1.78125 1.9375l-1.765625 0.8125q-0.8125 -1.625 -2.90625 -1.625q-1.015625 0 -1.765625 0.46875q-0.75 0.46875 -0.75 1.1875q0 0.671875 0.515625 1.09375q0.53125 0.421875 1.59375 0.671875l1.78125 0.46875q1.796875 0.453125 2.703125 1.359375q0.90625 0.890625 0.90625 2.1875q0 1.125 -0.640625 1.984375q-0.640625 0.84375 -1.75 1.3125q-1.109375 0.453125 -2.453125 0.453125zm11.35199 0q-1.96875 0 -3.296875 -0.921875q-1.3125 -0.9375 -1.859375 -2.375l1.828125 -0.8125q0.453125 1.109375 1.34375 1.703125q0.90625 0.59375 1.984375 0.59375q1.15625 0 1.96875 -0.46875q0.8125 -0.46875 0.8125 -1.328125q0 -0.765625 -0.65625 -1.234375q-0.640625 -0.46875 -2.03125 -0.796875l-1.484375 -0.390625q-1.46875 -0.359375 -2.40625 -1.21875q-0.921875 -0.875 -0.921875 -2.234375q0 -1.0625 0.625 -1.859375q0.640625 -0.8125 1.6875 -1.234375q1.0625 -0.4375 2.28125 -0.4375q1.609375 0 2.875 0.703125q1.265625 0.6875 1.78125 1.9375l-1.765625 0.8125q-0.8125 -1.625 -2.90625 -1.625q-1.015625 0 -1.765625 0.46875q-0.75 0.46875 -0.75 1.1875q0 0.671875 0.515625 1.09375q0.53125 0.421875 1.59375 0.671875l1.78125 0.46875q1.796875 0.453125 2.703125 1.359375q0.90625 0.890625 0.90625 2.1875q0 1.125 -0.640625 1.984375q-0.640625 0.84375 -1.75 1.3125q-1.109375 0.453125 -2.453125 0.453125zm5.5706787 -0.390625l0 0zm7.083618 -17.1875l2.03125 0l0 17.1875l-2.03125 0l0 -17.1875zm10.584595 17.578125q-1.796875 0 -3.25 -0.859375q-1.4375 -0.875 -2.25 -2.359375q-0.796875 -1.484375 -0.796875 -3.296875q0 -1.796875 0.796875 -3.28125q0.8125 -1.484375 2.25 -2.34375q1.453125 -0.875 3.25 -0.875q1.796875 0 3.234375 0.875q1.4375 0.859375 2.234375 2.34375q0.8125 1.484375 0.8125 3.28125q0 1.8125 -0.8125 3.296875q-0.796875 1.484375 -2.234375 2.359375q-1.4375 0.859375 -3.234375 0.859375zm0 -1.859375q1.125 0 2.09375 -0.5625q0.96875 -0.5625 1.5625 -1.609375q0.59375 -1.0625 0.59375 -2.484375q0 -1.40625 -0.59375 -2.453125q-0.59375 -1.0625 -1.5625 -1.625q-0.96875 -0.578125 -2.09375 -0.578125q-1.125 0 -2.109375 0.578125q-0.984375 0.5625 -1.578125 1.625q-0.59375 1.046875 -0.59375 2.453125q0 1.421875 0.59375 2.484375q0.59375 1.046875 1.578125 1.609375q0.984375 0.5625 2.109375 0.5625zm14.03833 7.03125q-2.15625 0 -3.5625 -1.015625q-1.40625 -1.0 -1.890625 -2.40625l1.875 -0.796875q0.390625 1.0625 1.328125 1.71875q0.953125 0.65625 2.25 0.65625q1.890625 0 2.9375 -1.109375q1.046875 -1.09375 1.046875 -3.109375l0 -1.375l-0.09375 0q-0.609375 0.9375 -1.703125 1.53125q-1.09375 0.578125 -2.484375 0.578125q-1.578125 0 -2.890625 -0.8125q-1.296875 -0.8125 -2.078125 -2.265625q-0.765625 -1.46875 -0.765625 -3.34375q0 -1.859375 0.765625 -3.328125q0.78125 -1.46875 2.078125 -2.28125q1.3125 -0.828125 2.890625 -0.828125q1.390625 0 2.484375 0.59375q1.09375 0.578125 1.703125 1.546875l0.09375 0l0 -1.75l1.9375 0l0 11.75q0 2.953125 -1.640625 4.5q-1.625 1.546875 -4.28125 1.546875zm0 -7.171875q1.09375 0 2.0 -0.546875q0.90625 -0.5625 1.4375 -1.59375q0.546875 -1.03125 0.546875 -2.4375q0 -1.4375 -0.546875 -2.46875q-0.53125 -1.046875 -1.4375 -1.578125q-0.90625 -0.546875 -2.0 -0.546875q-1.109375 0 -2.03125 0.5625q-0.90625 0.546875 -1.453125 1.578125q-0.53125 1.03125 -0.53125 2.453125q0 1.40625 0.53125 2.453125q0.546875 1.046875 1.453125 1.59375q0.921875 0.53125 2.03125 0.53125zm10.156067 -12.890625q-0.609375 0 -1.046875 -0.421875q-0.421875 -0.4375 -0.421875 -1.03125q0 -0.625 0.421875 -1.046875q0.4375 -0.421875 1.046875 -0.421875q0.625 0 1.03125 0.421875q0.421875 0.421875 0.421875 1.046875q0 0.59375 -0.421875 1.03125q-0.40625 0.421875 -1.03125 0.421875zm-1.015625 2.265625l2.046875 0l0 12.234375l-2.046875 0l0 -12.234375zm10.663391 12.625q-1.78125 0 -3.203125 -0.84375q-1.40625 -0.859375 -2.203125 -2.328125q-0.796875 -1.484375 -0.796875 -3.34375q0 -1.84375 0.796875 -3.328125q0.796875 -1.484375 2.203125 -2.328125q1.421875 -0.84375 3.203125 -0.84375q1.984375 0 3.34375 0.921875q1.359375 0.921875 1.9375 2.46875l-1.859375 0.765625q-0.453125 -1.125 -1.359375 -1.71875q-0.890625 -0.59375 -2.171875 -0.59375q-1.078125 0 -2.015625 0.59375q-0.921875 0.59375 -1.5 1.65625q-0.5625 1.046875 -0.5625 2.40625q0 1.375 0.5625 2.4375q0.578125 1.046875 1.5 1.640625q0.9375 0.578125 2.015625 0.578125q1.296875 0 2.234375 -0.59375q0.9375 -0.59375 1.390625 -1.703125l1.828125 0.765625q-0.625 1.515625 -2.0 2.453125q-1.375 0.9375 -3.34375 0.9375z" fill-rule="nonzero"/><path fill="#000000" fill-opacity="0.0" d="m564.49475 281.26248l319.62207 0l0 67.87399l-319.62207 0z" fill-rule="evenodd"/><path fill="#3ddb85" d="m573.24866 296.36496q1.296875 0 2.53125 0.671875q1.25 0.671875 1.9375 1.921875q0.6875 1.234375 0.6875 2.5625q0 2.15625 -1.515625 3.671875q-1.5 1.5 -3.640625 1.5q-2.140625 0 -3.65625 -1.5q-1.5 -1.515625 -1.5 -3.671875q0 -1.34375 0.6875 -2.578125q0.6875 -1.234375 1.921875 -1.90625q1.25 -0.671875 2.546875 -0.671875z" fill-rule="nonzero"/><path fill="#000000" d="m599.3854 291.11496l2.296875 0l6.53125 17.1875l-2.234375 0l-1.71875 -4.734375l-7.453125 0l-1.71875 4.734375l-2.234375 0l6.53125 -17.1875zm4.171875 10.546875l-2.296875 -6.203125l-0.671875 -1.84375l-0.109375 0l-0.671875 1.84375l-2.296875 6.203125l6.046875 0zm11.719971 7.03125q-1.78125 0 -3.203125 -0.84375q-1.40625 -0.859375 -2.203125 -2.328125q-0.796875 -1.484375 -0.796875 -3.34375q0 -1.84375 0.796875 -3.328125q0.796875 -1.484375 2.203125 -2.328125q1.421875 -0.84375 3.203125 -0.84375q1.984375 0 3.34375 0.921875q1.359375 0.921875 1.9375 2.46875l-1.859375 0.765625q-0.453125 -1.125 -1.359375 -1.71875q-0.890625 -0.59375 -2.171875 -0.59375q-1.078125 0 -2.015625 0.59375q-0.921875 0.59375 -1.5 1.65625q-0.5625 1.046875 -0.5625 2.40625q0 1.375 0.5625 2.4375q0.578125 1.046875 1.5 1.640625q0.9375 0.578125 2.015625 0.578125q1.296875 0 2.234375 -0.59375q0.9375 -0.59375 1.390625 -1.703125l1.828125 0.765625q-0.625 1.515625 -2.0 2.453125q-1.375 0.9375 -3.34375 0.9375zm12.983948 0q-1.78125 0 -3.203125 -0.84375q-1.40625 -0.859375 -2.203125 -2.328125q-0.796875 -1.484375 -0.796875 -3.34375q0 -1.84375 0.796875 -3.328125q0.796875 -1.484375 2.203125 -2.328125q1.421875 -0.84375 3.203125 -0.84375q1.984375 0 3.34375 0.921875q1.359375 0.921875 1.9375 2.46875l-1.859375 0.765625q-0.453125 -1.125 -1.359375 -1.71875q-0.890625 -0.59375 -2.171875 -0.59375q-1.078125 0 -2.015625 0.59375q-0.921875 0.59375 -1.5 1.65625q-0.5625 1.046875 -0.5625 2.40625q0 1.375 0.5625 2.4375q0.578125 1.046875 1.5 1.640625q0.9375 0.578125 2.015625 0.578125q1.296875 0 2.234375 -0.59375q0.9375 -0.59375 1.390625 -1.703125l1.828125 0.765625q-0.625 1.515625 -2.0 2.453125q-1.375 0.9375 -3.34375 0.9375zm12.874573 0q-1.75 0 -3.140625 -0.84375q-1.390625 -0.84375 -2.171875 -2.3125q-0.78125 -1.484375 -0.78125 -3.328125q0 -1.75 0.734375 -3.25q0.734375 -1.5 2.09375 -2.390625q1.359375 -0.890625 3.109375 -0.890625q1.796875 0 3.109375 0.8125q1.328125 0.796875 2.03125 2.21875q0.703125 1.40625 0.703125 3.234375q0 0.28125 -0.046875 0.625l-9.6875 0q0.0625 1.390625 0.65625 2.359375q0.609375 0.953125 1.53125 1.4375q0.9375 0.46875 1.9375 0.46875q2.40625 0 3.625 -2.203125l1.734375 0.84375q-0.78125 1.453125 -2.15625 2.34375q-1.359375 0.875 -3.28125 0.875zm3.53125 -7.8125q-0.046875 -0.765625 -0.4375 -1.53125q-0.375 -0.765625 -1.1875 -1.296875q-0.8125 -0.53125 -2.0625 -0.53125q-1.4375 0 -2.453125 0.9375q-1.0 0.921875 -1.3125 2.421875l7.453125 0zm8.928833 7.8125q-1.96875 0 -3.296875 -0.921875q-1.3125 -0.9375 -1.859375 -2.375l1.828125 -0.8125q0.453125 1.109375 1.34375 1.703125q0.90625 0.59375 1.984375 0.59375q1.15625 0 1.96875 -0.46875q0.8125 -0.46875 0.8125 -1.328125q0 -0.765625 -0.65625 -1.234375q-0.640625 -0.46875 -2.03125 -0.796875l-1.484375 -0.390625q-1.46875 -0.359375 -2.40625 -1.21875q-0.921875 -0.875 -0.921875 -2.234375q0 -1.0625 0.625 -1.859375q0.640625 -0.8125 1.6875 -1.234375q1.0625 -0.4375 2.28125 -0.4375q1.609375 0 2.875 0.703125q1.265625 0.6875 1.78125 1.9375l-1.765625 0.8125q-0.8125 -1.625 -2.90625 -1.625q-1.015625 0 -1.765625 0.46875q-0.75 0.46875 -0.75 1.1875q0 0.671875 0.515625 1.09375q0.53125 0.421875 1.59375 0.671875l1.78125 0.46875q1.796875 0.453125 2.703125 1.359375q0.90625 0.890625 0.90625 2.1875q0 1.125 -0.640625 1.984375q-0.640625 0.84375 -1.75 1.3125q-1.109375 0.453125 -2.453125 0.453125zm11.35199 0q-1.96875 0 -3.296875 -0.921875q-1.3125 -0.9375 -1.859375 -2.375l1.828125 -0.8125q0.453125 1.109375 1.34375 1.703125q0.90625 0.59375 1.984375 0.59375q1.15625 0 1.96875 -0.46875q0.8125 -0.46875 0.8125 -1.328125q0 -0.765625 -0.65625 -1.234375q-0.640625 -0.46875 -2.03125 -0.796875l-1.484375 -0.390625q-1.46875 -0.359375 -2.40625 -1.21875q-0.921875 -0.875 -0.921875 -2.234375q0 -1.0625 0.625 -1.859375q0.640625 -0.8125 1.6875 -1.234375q1.0625 -0.4375 2.28125 -0.4375q1.609375 0 2.875 0.703125q1.265625 0.6875 1.78125 1.9375l-1.765625 0.8125q-0.8125 -1.625 -2.90625 -1.625q-1.015625 0 -1.765625 0.46875q-0.75 0.46875 -0.75 1.1875q0 0.671875 0.515625 1.09375q0.53125 0.421875 1.59375 0.671875l1.78125 0.46875q1.796875 0.453125 2.703125 1.359375q0.90625 0.890625 0.90625 2.1875q0 1.125 -0.640625 1.984375q-0.640625 0.84375 -1.75 1.3125q-1.109375 0.453125 -2.453125 0.453125zm5.5706787 -0.390625l0 0zm11.786743 0.1875q-0.75 0 -1.390625 -0.234375q-0.625 -0.234375 -1.0625 -0.65625q-0.953125 -0.90625 -0.953125 -2.515625l0 -7.171875l-2.140625 0l0 -1.84375l2.140625 0l0 -3.46875l2.03125 0l0 3.46875l3.0 0l0 1.84375l-3.0 0l0 6.671875q0 1.0 0.390625 1.484375q0.453125 0.53125 1.3125 0.53125q0.75 0 1.34375 -0.40625l0 1.984375q-0.359375 0.171875 -0.734375 0.234375q-0.359375 0.078125 -0.9375 0.078125zm9.193481 0.203125q-1.796875 0 -3.25 -0.859375q-1.4375 -0.875 -2.25 -2.359375q-0.796875 -1.484375 -0.796875 -3.296875q0 -1.796875 0.796875 -3.28125q0.8125 -1.484375 2.25 -2.34375q1.453125 -0.875 3.25 -0.875q1.796875 0 3.234375 0.875q1.4375 0.859375 2.234375 2.34375q0.8125 1.484375 0.8125 3.28125q0 1.8125 -0.8125 3.296875q-0.796875 1.484375 -2.234375 2.359375q-1.4375 0.859375 -3.234375 0.859375zm0 -1.859375q1.125 0 2.09375 -0.5625q0.96875 -0.5625 1.5625 -1.609375q0.59375 -1.0625 0.59375 -2.484375q0 -1.40625 -0.59375 -2.453125q-0.59375 -1.0625 -1.5625 -1.625q-0.96875 -0.578125 -2.09375 -0.578125q-1.125 0 -2.109375 0.578125q-0.984375 0.5625 -1.578125 1.625q-0.59375 1.046875 -0.59375 2.453125q0 1.421875 0.59375 2.484375q0.59375 1.046875 1.578125 1.609375q0.984375 0.5625 2.109375 0.5625zm7.147705 1.46875l0 0zm13.302368 0.390625q-1.390625 0 -2.515625 -0.640625q-1.109375 -0.640625 -1.671875 -1.546875l-0.09375 0l0 1.796875l-1.9375 0l0 -17.1875l2.03125 0l0 5.0625l-0.09375 1.703125l0.09375 0q0.5625 -0.9375 1.671875 -1.5625q1.125 -0.640625 2.515625 -0.640625q1.65625 0 2.984375 0.84375q1.328125 0.84375 2.09375 2.328125q0.765625 1.484375 0.765625 3.328125q0 1.875 -0.765625 3.359375q-0.765625 1.46875 -2.09375 2.3125q-1.328125 0.84375 -2.984375 0.84375zm-0.21875 -1.859375q1.046875 0 1.984375 -0.5625q0.9375 -0.578125 1.484375 -1.640625q0.5625 -1.0625 0.5625 -2.453125q0 -1.390625 -0.5625 -2.4375q-0.546875 -1.0625 -1.484375 -1.640625q-0.9375 -0.578125 -1.984375 -0.578125q-1.078125 0 -2.015625 0.578125q-0.921875 0.578125 -1.484375 1.640625q-0.5625 1.046875 -0.5625 2.4375q0 1.390625 0.5625 2.453125q0.5625 1.0625 1.484375 1.640625q0.9375 0.5625 2.015625 0.5625zm12.765442 1.859375q-2.203125 0 -3.375 -1.296875q-1.15625 -1.296875 -1.15625 -3.625l0 -7.703125l2.03125 0l0 7.390625q0 1.75 0.796875 2.5625q0.796875 0.8125 2.140625 0.8125q1.03125 0 1.828125 -0.546875q0.8125 -0.546875 1.25 -1.4375q0.4375 -0.890625 0.4375 -1.875l0 -6.90625l2.046875 0l0 12.234375l-1.9375 0l0 -1.78125l-0.109375 0q-0.5 0.921875 -1.609375 1.546875q-1.09375 0.625 -2.34375 0.625zm13.172058 0q-1.96875 0 -3.296875 -0.921875q-1.3125 -0.9375 -1.859375 -2.375l1.828125 -0.8125q0.453125 1.109375 1.34375 1.703125q0.90625 0.59375 1.984375 0.59375q1.15625 0 1.96875 -0.46875q0.8125 -0.46875 0.8125 -1.328125q0 -0.765625 -0.65625 -1.234375q-0.640625 -0.46875 -2.03125 -0.796875l-1.484375 -0.390625q-1.46875 -0.359375 -2.40625 -1.21875q-0.921875 -0.875 -0.921875 -2.234375q0 -1.0625 0.625 -1.859375q0.640625 -0.8125 1.6875 -1.234375q1.0625 -0.4375 2.28125 -0.4375q1.609375 0 2.875 0.703125q1.265625 0.6875 1.78125 1.9375l-1.765625 0.8125q-0.8125 -1.625 -2.90625 -1.625q-1.015625 0 -1.765625 0.46875q-0.75 0.46875 -0.75 1.1875q0 0.671875 0.515625 1.09375q0.53125 0.421875 1.59375 0.671875l1.78125 0.46875q1.796875 0.453125 2.703125 1.359375q0.90625 0.890625 0.90625 2.1875q0 1.125 -0.640625 1.984375q-0.640625 0.84375 -1.75 1.3125q-1.109375 0.453125 -2.453125 0.453125zm8.169495 -14.890625q-0.609375 0 -1.046875 -0.421875q-0.421875 -0.4375 -0.421875 -1.03125q0 -0.625 0.421875 -1.046875q0.4375 -0.421875 1.046875 -0.421875q0.625 0 1.03125 0.421875q0.421875 0.421875 0.421875 1.046875q0 0.59375 -0.421875 1.03125q-0.40625 0.421875 -1.03125 0.421875zm-1.015625 2.265625l2.046875 0l0 12.234375l-2.046875 0l0 -12.234375zm5.23645 0l1.9375 0l0 1.796875l0.09375 0q0.515625 -0.921875 1.609375 -1.546875q1.109375 -0.640625 2.359375 -0.640625q2.203125 0 3.359375 1.28125q1.171875 1.28125 1.171875 3.5l0 7.84375l-2.03125 0l0 -7.53125q0 -1.703125 -0.828125 -2.46875q-0.8125 -0.78125 -2.234375 -0.78125q-0.984375 0 -1.765625 0.5625q-0.765625 0.546875 -1.203125 1.453125q-0.4375 0.890625 -0.4375 1.875l0 6.890625l-2.03125 0l0 -12.234375zm18.90149 12.625q-1.75 0 -3.140625 -0.84375q-1.390625 -0.84375 -2.171875 -2.3125q-0.78125 -1.484375 -0.78125 -3.328125q0 -1.75 0.734375 -3.25q0.734375 -1.5 2.09375 -2.390625q1.359375 -0.890625 3.109375 -0.890625q1.796875 0 3.109375 0.8125q1.328125 0.796875 2.03125 2.21875q0.703125 1.40625 0.703125 3.234375q0 0.28125 -0.046875 0.625l-9.6875 0q0.0625 1.390625 0.65625 2.359375q0.609375 0.953125 1.53125 1.4375q0.9375 0.46875 1.9375 0.46875q2.40625 0 3.625 -2.203125l1.734375 0.84375q-0.78125 1.453125 -2.15625 2.34375q-1.359375 0.875 -3.28125 0.875zm3.53125 -7.8125q-0.046875 -0.765625 -0.4375 -1.53125q-0.375 -0.765625 -1.1875 -1.296875q-0.8125 -0.53125 -2.0625 -0.53125q-1.4375 0 -2.453125 0.9375q-1.0 0.921875 -1.3125 2.421875l7.453125 0zm8.928833 7.8125q-1.96875 0 -3.296875 -0.921875q-1.3125 -0.9375 -1.859375 -2.375l1.828125 -0.8125q0.453125 1.109375 1.34375 1.703125q0.90625 0.59375 1.984375 0.59375q1.15625 0 1.96875 -0.46875q0.8125 -0.46875 0.8125 -1.328125q0 -0.765625 -0.65625 -1.234375q-0.640625 -0.46875 -2.03125 -0.796875l-1.484375 -0.390625q-1.46875 -0.359375 -2.40625 -1.21875q-0.921875 -0.875 -0.921875 -2.234375q0 -1.0625 0.625 -1.859375q0.640625 -0.8125 1.6875 -1.234375q1.0625 -0.4375 2.28125 -0.4375q1.609375 0 2.875 0.703125q1.265625 0.6875 1.78125 1.9375l-1.765625 0.8125q-0.8125 -1.625 -2.90625 -1.625q-1.015625 0 -1.765625 0.46875q-0.75 0.46875 -0.75 1.1875q0 0.671875 0.515625 1.09375q0.53125 0.421875 1.59375 0.671875l1.78125 0.46875q1.796875 0.453125 2.703125 1.359375q0.90625 0.890625 0.90625 2.1875q0 1.125 -0.640625 1.984375q-0.640625 0.84375 -1.75 1.3125q-1.109375 0.453125 -2.453125 0.453125zm11.351929 0q-1.96875 0 -3.296875 -0.921875q-1.3125 -0.9375 -1.859375 -2.375l1.828125 -0.8125q0.453125 1.109375 1.34375 1.703125q0.90625 0.59375 1.984375 0.59375q1.15625 0 1.96875 -0.46875q0.8125 -0.46875 0.8125 -1.328125q0 -0.765625 -0.65625 -1.234375q-0.640625 -0.46875 -2.03125 -0.796875l-1.484375 -0.390625q-1.46875 -0.359375 -2.40625 -1.21875q-0.921875 -0.875 -0.921875 -2.234375q0 -1.0625 0.625 -1.859375q0.640625 -0.8125 1.6875 -1.234375q1.0625 -0.4375 2.28125 -0.4375q1.609375 0 2.875 0.703125q1.265625 0.6875 1.78125 1.9375l-1.765625 0.8125q-0.8125 -1.625 -2.90625 -1.625q-1.015625 0 -1.765625 0.46875q-0.75 0.46875 -0.75 1.1875q0 0.671875 0.515625 1.09375q0.53125 0.421875 1.59375 0.671875l1.78125 0.46875q1.796875 0.453125 2.703125 1.359375q0.90625 0.890625 0.90625 2.1875q0 1.125 -0.640625 1.984375q-0.640625 0.84375 -1.75 1.3125q-1.109375 0.453125 -2.453125 0.453125zm5.5707397 -0.390625l0 0zm7.083618 -17.1875l2.03125 0l0 17.1875l-2.03125 0l0 -17.1875zm10.584595 17.578125q-1.796875 0 -3.25 -0.859375q-1.4375 -0.875 -2.25 -2.359375q-0.796875 -1.484375 -0.796875 -3.296875q0 -1.796875 0.796875 -3.28125q0.8125 -1.484375 2.25 -2.34375q1.453125 -0.875 3.25 -0.875q1.796875 0 3.234375 0.875q1.4375 0.859375 2.234375 2.34375q0.8125 1.484375 0.8125 3.28125q0 1.8125 -0.8125 3.296875q-0.796875 1.484375 -2.234375 2.359375q-1.4375 0.859375 -3.234375 0.859375zm0 -1.859375q1.125 0 2.09375 -0.5625q0.96875 -0.5625 1.5625 -1.609375q0.59375 -1.0625 0.59375 -2.484375q0 -1.40625 -0.59375 -2.453125q-0.59375 -1.0625 -1.5625 -1.625q-0.96875 -0.578125 -2.09375 -0.578125q-1.125 0 -2.109375 0.578125q-0.984375 0.5625 -1.578125 1.625q-0.59375 1.046875 -0.59375 2.453125q0 1.421875 0.59375 2.484375q0.59375 1.046875 1.578125 1.609375q0.984375 0.5625 2.109375 0.5625zm14.03833 7.03125q-2.15625 0 -3.5625 -1.015625q-1.40625 -1.0 -1.890625 -2.40625l1.875 -0.796875q0.390625 1.0625 1.328125 1.71875q0.953125 0.65625 2.25 0.65625q1.890625 0 2.9375 -1.109375q1.046875 -1.09375 1.046875 -3.109375l0 -1.375l-0.09375 0q-0.609375 0.9375 -1.703125 1.53125q-1.09375 0.578125 -2.484375 0.578125q-1.578125 0 -2.890625 -0.8125q-1.296875 -0.8125 -2.078125 -2.265625q-0.765625 -1.46875 -0.765625 -3.34375q0 -1.859375 0.765625 -3.328125q0.78125 -1.46875 2.078125 -2.28125q1.3125 -0.828125 2.890625 -0.828125q1.390625 0 2.484375 0.59375q1.09375 0.578125 1.703125 1.546875l0.09375 0l0 -1.75l1.9375 0l0 11.75q0 2.953125 -1.640625 4.5q-1.625 1.546875 -4.28125 1.546875zm0 -7.171875q1.09375 0 2.0 -0.546875q0.90625 -0.5625 1.4375 -1.59375q0.546875 -1.03125 0.546875 -2.4375q0 -1.4375 -0.546875 -2.46875q-0.53125 -1.046875 -1.4375 -1.578125q-0.90625 -0.546875 -2.0 -0.546875q-1.109375 0 -2.03125 0.5625q-0.90625 0.546875 -1.453125 1.578125q-0.53125 1.03125 -0.53125 2.453125q0 1.40625 0.53125 2.453125q0.546875 1.046875 1.453125 1.59375q0.921875 0.53125 2.03125 0.53125zm10.156067 -12.890625q-0.609375 0 -1.046875 -0.421875q-0.421875 -0.4375 -0.421875 -1.03125q0 -0.625 0.421875 -1.046875q0.4375 -0.421875 1.046875 -0.421875q0.625 0 1.03125 0.421875q0.421875 0.421875 0.421875 1.046875q0 0.59375 -0.421875 1.03125q-0.40625 0.421875 -1.03125 0.421875zm-1.015625 2.265625l2.046875 0l0 12.234375l-2.046875 0l0 -12.234375zm10.663391 12.625q-1.78125 0 -3.203125 -0.84375q-1.40625 -0.859375 -2.203125 -2.328125q-0.796875 -1.484375 -0.796875 -3.34375q0 -1.84375 0.796875 -3.328125q0.796875 -1.484375 2.203125 -2.328125q1.421875 -0.84375 3.203125 -0.84375q1.984375 0 3.34375 0.921875q1.359375 0.921875 1.9375 2.46875l-1.859375 0.765625q-0.453125 -1.125 -1.359375 -1.71875q-0.890625 -0.59375 -2.171875 -0.59375q-1.078125 0 -2.015625 0.59375q-0.921875 0.59375 -1.5 1.65625q-0.5625 1.046875 -0.5625 2.40625q0 1.375 0.5625 2.4375q0.578125 1.046875 1.5 1.640625q0.9375 0.578125 2.015625 0.578125q1.296875 0 2.234375 -0.59375q0.9375 -0.59375 1.390625 -1.703125l1.828125 0.765625q-0.625 1.515625 -2.0 2.453125q-1.375 0.9375 -3.34375 0.9375z" fill-rule="nonzero"/><path fill="#3ddb85" d="m573.24866 325.16498q1.296875 0 2.53125 0.671875q1.25 0.671875 1.9375 1.921875q0.6875 1.234375 0.6875 2.5625q0 2.15625 -1.515625 3.671875q-1.5 1.5 -3.640625 1.5q-2.140625 0 -3.65625 -1.5q-1.5 -1.515625 -1.5 -3.671875q0 -1.34375 0.6875 -2.578125q0.6875 -1.234375 1.921875 -1.90625q1.25 -0.671875 2.546875 -0.671875z" fill-rule="nonzero"/><path fill="#000000" d="m599.2135 337.4931q-1.296875 0 -2.515625 -0.546875q-1.203125 -0.546875 -2.140625 -1.578125q-0.9375 -1.046875 -1.34375 -2.53125l1.9375 -0.796875q0.421875 1.53125 1.515625 2.515625q1.109375 0.984375 2.59375 0.984375q1.484375 0 2.515625 -0.796875q1.03125 -0.8125 1.03125 -2.203125q0 -1.203125 -0.875 -1.96875q-0.875 -0.78125 -2.859375 -1.453125l-1.078125 -0.390625q-1.828125 -0.65625 -2.984375 -1.703125q-1.140625 -1.0625 -1.140625 -2.9375q0 -1.21875 0.671875 -2.25q0.671875 -1.046875 1.859375 -1.671875q1.203125 -0.625 2.6875 -0.625q1.5 0 2.59375 0.546875q1.109375 0.546875 1.765625 1.34375q0.65625 0.796875 0.921875 1.5625l-1.890625 0.8125q-0.265625 -0.890625 -1.125 -1.609375q-0.84375 -0.71875 -2.234375 -0.71875q-1.328125 0 -2.265625 0.75q-0.921875 0.734375 -0.921875 1.859375q0 1.015625 0.78125 1.65625q0.796875 0.625 2.40625 1.1875l1.125 0.375q2.1875 0.796875 3.40625 1.984375q1.234375 1.1875 1.234375 3.234375q0 1.65625 -0.859375 2.78125q-0.84375 1.125 -2.140625 1.65625q-1.296875 0.53125 -2.671875 0.53125zm13.831726 0q-1.78125 0 -3.203125 -0.84375q-1.40625 -0.859375 -2.203125 -2.328125q-0.796875 -1.484375 -0.796875 -3.34375q0 -1.84375 0.796875 -3.328125q0.796875 -1.484375 2.203125 -2.328125q1.421875 -0.84375 3.203125 -0.84375q1.984375 0 3.34375 0.921875q1.359375 0.921875 1.9375 2.46875l-1.859375 0.765625q-0.453125 -1.125 -1.359375 -1.71875q-0.890625 -0.59375 -2.171875 -0.59375q-1.078125 0 -2.015625 0.59375q-0.921875 0.59375 -1.5 1.65625q-0.5625 1.046875 -0.5625 2.40625q0 1.375 0.5625 2.4375q0.578125 1.046875 1.5 1.640625q0.9375 0.578125 2.015625 0.578125q1.296875 0 2.234375 -0.59375q0.9375 -0.59375 1.390625 -1.703125l1.828125 0.765625q-0.625 1.515625 -2.0 2.453125q-1.375 0.9375 -3.34375 0.9375zm7.4370728 -12.625l1.9375 0l0 1.96875l0.09375 0q0.359375 -1.015625 1.390625 -1.671875q1.03125 -0.65625 2.171875 -0.65625q0.828125 0 1.4375 0.234375l0 2.203125q-0.765625 -0.375 -1.734375 -0.375q-0.890625 0 -1.640625 0.5q-0.734375 0.5 -1.1875 1.359375q-0.4375 0.84375 -0.4375 1.828125l0 6.84375l-2.03125 0l0 -12.234375zm13.717468 12.625q-1.75 0 -3.140625 -0.84375q-1.390625 -0.84375 -2.171875 -2.3125q-0.78125 -1.484375 -0.78125 -3.328125q0 -1.75 0.734375 -3.25q0.734375 -1.5 2.09375 -2.390625q1.359375 -0.890625 3.109375 -0.890625q1.796875 0 3.109375 0.8125q1.328125 0.796875 2.03125 2.21875q0.703125 1.40625 0.703125 3.234375q0 0.28125 -0.046875 0.625l-9.6875 0q0.0625 1.390625 0.65625 2.359375q0.609375 0.953125 1.53125 1.4375q0.9375 0.46875 1.9375 0.46875q2.40625 0 3.625 -2.203125l1.734375 0.84375q-0.78125 1.453125 -2.15625 2.34375q-1.359375 0.875 -3.28125 0.875zm3.53125 -7.8125q-0.046875 -0.765625 -0.4375 -1.53125q-0.375 -0.765625 -1.1875 -1.296875q-0.8125 -0.53125 -2.0625 -0.53125q-1.4375 0 -2.453125 0.9375q-1.0 0.921875 -1.3125 2.421875l7.453125 0zm10.100708 7.8125q-1.75 0 -3.140625 -0.84375q-1.390625 -0.84375 -2.171875 -2.3125q-0.78125 -1.484375 -0.78125 -3.328125q0 -1.75 0.734375 -3.25q0.734375 -1.5 2.09375 -2.390625q1.359375 -0.890625 3.109375 -0.890625q1.796875 0 3.109375 0.8125q1.328125 0.796875 2.03125 2.21875q0.703125 1.40625 0.703125 3.234375q0 0.28125 -0.046875 0.625l-9.6875 0q0.0625 1.390625 0.65625 2.359375q0.609375 0.953125 1.53125 1.4375q0.9375 0.46875 1.9375 0.46875q2.40625 0 3.625 -2.203125l1.734375 0.84375q-0.78125 1.453125 -2.15625 2.34375q-1.359375 0.875 -3.28125 0.875zm3.53125 -7.8125q-0.046875 -0.765625 -0.4375 -1.53125q-0.375 -0.765625 -1.1875 -1.296875q-0.8125 -0.53125 -2.0625 -0.53125q-1.4375 0 -2.453125 0.9375q-1.0 0.921875 -1.3125 2.421875l7.453125 0zm4.543213 -4.8125l1.9375 0l0 1.796875l0.09375 0q0.515625 -0.921875 1.609375 -1.546875q1.109375 -0.640625 2.359375 -0.640625q2.203125 0 3.359375 1.28125q1.171875 1.28125 1.171875 3.5l0 7.84375l-2.03125 0l0 -7.53125q0 -1.703125 -0.828125 -2.46875q-0.8125 -0.78125 -2.234375 -0.78125q-0.984375 0 -1.765625 0.5625q-0.765625 0.546875 -1.203125 1.453125q-0.4375 0.890625 -0.4375 1.875l0 6.890625l-2.03125 0l0 -12.234375zm11.948303 12.234375l0 0zm11.349243 0.390625q-1.96875 0 -3.296875 -0.921875q-1.3125 -0.9375 -1.859375 -2.375l1.828125 -0.8125q0.453125 1.109375 1.34375 1.703125q0.90625 0.59375 1.984375 0.59375q1.15625 0 1.96875 -0.46875q0.8125 -0.46875 0.8125 -1.328125q0 -0.765625 -0.65625 -1.234375q-0.640625 -0.46875 -2.03125 -0.796875l-1.484375 -0.390625q-1.46875 -0.359375 -2.40625 -1.21875q-0.921875 -0.875 -0.921875 -2.234375q0 -1.0625 0.625 -1.859375q0.640625 -0.8125 1.6875 -1.234375q1.0625 -0.4375 2.28125 -0.4375q1.609375 0 2.875 0.703125q1.265625 0.6875 1.78125 1.9375l-1.765625 0.8125q-0.8125 -1.625 -2.90625 -1.625q-1.015625 0 -1.765625 0.46875q-0.75 0.46875 -0.75 1.1875q0 0.671875 0.515625 1.09375q0.53125 0.421875 1.59375 0.671875l1.78125 0.46875q1.796875 0.453125 2.703125 1.359375q0.90625 0.890625 0.90625 2.1875q0 1.125 -0.640625 1.984375q-0.640625 0.84375 -1.75 1.3125q-1.109375 0.453125 -2.453125 0.453125zm11.669495 -0.203125q-0.75 0 -1.390625 -0.234375q-0.625 -0.234375 -1.0625 -0.65625q-0.953125 -0.90625 -0.953125 -2.515625l0 -7.171875l-2.140625 0l0 -1.84375l2.140625 0l0 -3.46875l2.03125 0l0 3.46875l3.0 0l0 1.84375l-3.0 0l0 6.671875q0 1.0 0.390625 1.484375q0.453125 0.53125 1.3125 0.53125q0.75 0 1.34375 -0.40625l0 1.984375q-0.359375 0.171875 -0.734375 0.234375q-0.359375 0.078125 -0.9375 0.078125zm7.7470703 0.203125q-1.34375 0 -2.40625 -0.53125q-1.046875 -0.53125 -1.625 -1.453125q-0.578125 -0.921875 -0.578125 -2.109375q0 -1.9375 1.46875 -3.03125q1.46875 -1.09375 3.6875 -1.09375q1.109375 0 2.046875 0.25q0.953125 0.234375 1.46875 0.546875l0 -0.75q0 -1.359375 -0.96875 -2.1875q-0.953125 -0.828125 -2.421875 -0.828125q-1.0 0 -1.875 0.453125q-0.875 0.4375 -1.390625 1.21875l-1.53125 -1.140625q0.71875 -1.109375 1.984375 -1.734375q1.28125 -0.625 2.8125 -0.625q2.5 0 3.90625 1.3125q1.421875 1.296875 1.421875 3.5625l0 7.75l-1.9375 0l0 -1.75l-0.09375 0q-0.53125 0.890625 -1.59375 1.515625q-1.046875 0.625 -2.375 0.625zm0.1875 -1.8125q1.03125 0 1.921875 -0.515625q0.890625 -0.53125 1.421875 -1.421875q0.53125 -0.890625 0.53125 -1.9375q-0.578125 -0.390625 -1.421875 -0.625q-0.84375 -0.25 -1.78125 -0.25q-1.671875 0 -2.53125 0.703125q-0.84375 0.6875 -0.84375 1.796875q0 1.015625 0.765625 1.640625q0.765625 0.609375 1.9375 0.609375zm13.113342 1.609375q-0.75 0 -1.390625 -0.234375q-0.625 -0.234375 -1.0625 -0.65625q-0.953125 -0.90625 -0.953125 -2.515625l0 -7.171875l-2.140625 0l0 -1.84375l2.140625 0l0 -3.46875l2.03125 0l0 3.46875l3.0 0l0 1.84375l-3.0 0l0 6.671875q0 1.0 0.390625 1.484375q0.453125 0.53125 1.3125 0.53125q0.75 0 1.34375 -0.40625l0 1.984375q-0.359375 0.171875 -0.734375 0.234375q-0.359375 0.078125 -0.9375 0.078125zm8.990356 0.203125q-1.75 0 -3.140625 -0.84375q-1.390625 -0.84375 -2.171875 -2.3125q-0.78125 -1.484375 -0.78125 -3.328125q0 -1.75 0.734375 -3.25q0.734375 -1.5 2.09375 -2.390625q1.359375 -0.890625 3.109375 -0.890625q1.796875 0 3.109375 0.8125q1.328125 0.796875 2.03125 2.21875q0.703125 1.40625 0.703125 3.234375q0 0.28125 -0.046875 0.625l-9.6875 0q0.0625 1.390625 0.65625 2.359375q0.609375 0.953125 1.53125 1.4375q0.9375 0.46875 1.9375 0.46875q2.40625 0 3.625 -2.203125l1.734375 0.84375q-0.78125 1.453125 -2.15625 2.34375q-1.359375 0.875 -3.28125 0.875zm3.53125 -7.8125q-0.046875 -0.765625 -0.4375 -1.53125q-0.375 -0.765625 -1.1875 -1.296875q-0.8125 -0.53125 -2.0625 -0.53125q-1.4375 0 -2.453125 0.9375q-1.0 0.921875 -1.3125 2.421875l7.453125 0z" fill-rule="nonzero"/><path fill="#000000" fill-opacity="0.0" d="m155.5315 51.7769l684.4094 0l0 200.12599l-684.4094 0z" fill-rule="evenodd"/><path stroke="#f4b400" stroke-width="8.0" stroke-linejoin="round" stroke-linecap="butt" stroke-dasharray="8.0,24.0" d="m155.5315 51.7769l684.4094 0l0 200.12599l-684.4094 0z" fill-rule="evenodd"/><path fill="#000000" fill-opacity="0.0" d="m564.49475 88.37533l216.25195 0l0 38.771652l-216.25195 0z" fill-rule="evenodd"/><path fill="#3ddb85" d="m573.24866 103.47783q1.296875 0 2.53125 0.671875q1.25 0.671875 1.9375 1.921875q0.6875 1.234375 0.6875 2.5625q0 2.15625 -1.515625 3.671875q-1.5 1.5 -3.640625 1.5q-2.140625 0 -3.65625 -1.5q-1.5 -1.515625 -1.5 -3.671875q0 -1.34375 0.6875 -2.578125q0.6875 -1.234375 1.921875 -1.90625q1.25 -0.671875 2.546875 -0.671875z" fill-rule="nonzero"/><path fill="#000000" d="m600.3229 115.805954q-1.859375 0 -3.296875 -0.84375q-1.4375 -0.859375 -2.234375 -2.390625q-0.78125 -1.53125 -0.78125 -3.515625l0 -10.828125l2.03125 0l0 10.921875q0 2.09375 1.109375 3.40625q1.109375 1.296875 3.171875 1.296875q2.0625 0 3.171875 -1.296875q1.125 -1.3125 1.125 -3.40625l0 -10.921875l2.03125 0l0 10.828125q0 1.984375 -0.765625 3.53125q-0.75 1.53125 -2.1875 2.375q-1.4375 0.84375 -3.375 0.84375zm9.765686 -17.578125l2.03125 0l0 17.1875l-2.03125 0l0 -17.1875zm3.95813 17.1875l0 0zm12.521118 0.390625q-1.75 0 -3.140625 -0.84375q-1.390625 -0.84375 -2.171875 -2.3125q-0.78125 -1.484375 -0.78125 -3.328125q0 -1.75 0.734375 -3.25q0.734375 -1.5 2.09375 -2.390625q1.359375 -0.890625 3.109375 -0.890625q1.796875 0 3.109375 0.8125q1.328125 0.796875 2.03125 2.21875q0.703125 1.40625 0.703125 3.234375q0 0.28125 -0.046875 0.625l-9.6875 0q0.0625 1.390625 0.65625 2.359375q0.609375 0.953125 1.53125 1.4375q0.9375 0.46875 1.9375 0.46875q2.40625 0 3.625 -2.203125l1.734375 0.84375q-0.78125 1.453125 -2.15625 2.34375q-1.359375 0.875 -3.28125 0.875zm3.53125 -7.8125q-0.046875 -0.765625 -0.4375 -1.53125q-0.375 -0.765625 -1.1875 -1.296875q-0.8125 -0.53125 -2.0625 -0.53125q-1.4375 0 -2.453125 0.9375q-1.0 0.921875 -1.3125 2.421875l7.453125 0zm4.543213 -9.765625l2.03125 0l0 17.1875l-2.03125 0l0 -17.1875zm10.38147 17.578125q-1.75 0 -3.140625 -0.84375q-1.390625 -0.84375 -2.171875 -2.3125q-0.78125 -1.484375 -0.78125 -3.328125q0 -1.75 0.734375 -3.25q0.734375 -1.5 2.09375 -2.390625q1.359375 -0.890625 3.109375 -0.890625q1.796875 0 3.109375 0.8125q1.328125 0.796875 2.03125 2.21875q0.703125 1.40625 0.703125 3.234375q0 0.28125 -0.046875 0.625l-9.6875 0q0.0625 1.390625 0.65625 2.359375q0.609375 0.953125 1.53125 1.4375q0.9375 0.46875 1.9375 0.46875q2.40625 0 3.625 -2.203125l1.734375 0.84375q-0.78125 1.453125 -2.15625 2.34375q-1.359375 0.875 -3.28125 0.875zm3.53125 -7.8125q-0.046875 -0.765625 -0.4375 -1.53125q-0.375 -0.765625 -1.1875 -1.296875q-0.8125 -0.53125 -2.0625 -0.53125q-1.4375 0 -2.453125 0.9375q-1.0 0.921875 -1.3125 2.421875l7.453125 0zm4.543213 -4.8125l1.9375 0l0 1.796875l0.09375 0q0.53125 -0.9375 1.578125 -1.5625q1.0625 -0.625 2.25 -0.625q1.34375 0 2.328125 0.65625q1.0 0.640625 1.4375 1.71875q0.640625 -1.078125 1.703125 -1.71875q1.078125 -0.65625 2.5 -0.65625q2.109375 0 3.171875 1.28125q1.0625 1.28125 1.0625 3.5l0 7.84375l-2.015625 0l0 -7.53125q0 -1.703125 -0.703125 -2.46875q-0.6875 -0.78125 -2.046875 -0.78125q-0.921875 0 -1.671875 0.53125q-0.734375 0.53125 -1.15625 1.421875q-0.421875 0.890625 -0.421875 1.921875l0 6.90625l-2.03125 0l0 -7.515625q0 -1.71875 -0.703125 -2.484375q-0.6875 -0.78125 -2.03125 -0.78125q-0.921875 0 -1.671875 0.546875q-0.734375 0.53125 -1.15625 1.4375q-0.421875 0.90625 -0.421875 1.9375l0 6.859375l-2.03125 0l0 -12.234375zm26.461426 12.625q-1.75 0 -3.140625 -0.84375q-1.390625 -0.84375 -2.171875 -2.3125q-0.78125 -1.484375 -0.78125 -3.328125q0 -1.75 0.734375 -3.25q0.734375 -1.5 2.09375 -2.390625q1.359375 -0.890625 3.109375 -0.890625q1.796875 0 3.109375 0.8125q1.328125 0.796875 2.03125 2.21875q0.703125 1.40625 0.703125 3.234375q0 0.28125 -0.046875 0.625l-9.6875 0q0.0625 1.390625 0.65625 2.359375q0.609375 0.953125 1.53125 1.4375q0.9375 0.46875 1.9375 0.46875q2.40625 0 3.625 -2.203125l1.734375 0.84375q-0.78125 1.453125 -2.15625 2.34375q-1.359375 0.875 -3.28125 0.875zm3.53125 -7.8125q-0.046875 -0.765625 -0.4375 -1.53125q-0.375 -0.765625 -1.1875 -1.296875q-0.8125 -0.53125 -2.0625 -0.53125q-1.4375 0 -2.453125 0.9375q-1.0 0.921875 -1.3125 2.421875l7.453125 0zm4.543213 -4.8125l1.9375 0l0 1.796875l0.09375 0q0.515625 -0.921875 1.609375 -1.546875q1.109375 -0.640625 2.359375 -0.640625q2.203125 0 3.359375 1.28125q1.171875 1.28125 1.171875 3.5l0 7.84375l-2.03125 0l0 -7.53125q0 -1.703125 -0.828125 -2.46875q-0.8125 -0.78125 -2.234375 -0.78125q-0.984375 0 -1.765625 0.5625q-0.765625 0.546875 -1.203125 1.453125q-0.4375 0.890625 -0.4375 1.875l0 6.890625l-2.03125 0l0 -12.234375zm17.567078 12.421875q-0.75 0 -1.390625 -0.234375q-0.625 -0.234375 -1.0625 -0.65625q-0.953125 -0.90625 -0.953125 -2.515625l0 -7.171875l-2.140625 0l0 -1.84375l2.140625 0l0 -3.46875l2.03125 0l0 3.46875l3.0 0l0 1.84375l-3.0 0l0 6.671875q0 1.0 0.390625 1.484375q0.453125 0.53125 1.3125 0.53125q0.75 0 1.34375 -0.40625l0 1.984375q-0.359375 0.171875 -0.734375 0.234375q-0.359375 0.078125 -0.9375 0.078125zm8.586487 0.203125q-1.96875 0 -3.296875 -0.921875q-1.3125 -0.9375 -1.859375 -2.375l1.828125 -0.8125q0.453125 1.109375 1.34375 1.703125q0.90625 0.59375 1.984375 0.59375q1.15625 0 1.96875 -0.46875q0.8125 -0.46875 0.8125 -1.328125q0 -0.765625 -0.65625 -1.234375q-0.640625 -0.46875 -2.03125 -0.796875l-1.484375 -0.390625q-1.46875 -0.359375 -2.40625 -1.21875q-0.921875 -0.875 -0.921875 -2.234375q0 -1.0625 0.625 -1.859375q0.640625 -0.8125 1.6875 -1.234375q1.0625 -0.4375 2.28125 -0.4375q1.609375 0 2.875 0.703125q1.265625 0.6875 1.78125 1.9375l-1.765625 0.8125q-0.8125 -1.625 -2.90625 -1.625q-1.015625 0 -1.765625 0.46875q-0.75 0.46875 -0.75 1.1875q0 0.671875 0.515625 1.09375q0.53125 0.421875 1.59375 0.671875l1.78125 0.46875q1.796875 0.453125 2.703125 1.359375q0.90625 0.890625 0.90625 2.1875q0 1.125 -0.640625 1.984375q-0.640625 0.84375 -1.75 1.3125q-1.109375 0.453125 -2.453125 0.453125z" fill-rule="nonzero"/><path fill="#1a73e8" d="m288.06693 86.16369l0 0c0 -4.266968 3.459076 -7.726021 7.726013 -7.726021l245.39835 0c2.0490723 0 4.014221 0.81398773 5.463135 2.2628937c1.4489136 1.4489136 2.2628784 3.4140549 2.2628784 5.463127l0 43.22512c0 4.266968 -3.4590454 7.726013 -7.726013 7.726013l-245.39835 0c-4.2669373 0 -7.726013 -3.4590454 -7.726013 -7.726013z" fill-rule="evenodd"/><path fill="#ffffff" d="m351.25055 116.73812q-2.765625 0 -5.046875 -1.296875q-2.28125 -1.3125 -3.59375 -3.59375q-1.296875 -2.296875 -1.296875 -5.078125q0 -2.765625 1.296875 -5.0625q1.3125 -2.296875 3.59375 -3.59375q2.28125 -1.3125 5.046875 -1.3125q4.296875 0 7.0625 3.125l-2.046875 2.0q-0.984375 -1.171875 -2.203125 -1.75q-1.21875 -0.59375 -2.78125 -0.59375q-1.953125 0 -3.546875 0.890625q-1.59375 0.890625 -2.53125 2.53125q-0.9375 1.640625 -0.9375 3.765625q0 2.140625 0.9375 3.78125q0.9375 1.640625 2.53125 2.53125q1.59375 0.890625 3.546875 0.890625q3.25 0 5.46875 -2.6875l2.09375 2.015625q-1.375 1.625 -3.328125 2.53125q-1.9375 0.90625 -4.265625 0.90625zm16.263 0q-2.046875 0 -3.6875 -0.9375q-1.625 -0.953125 -2.53125 -2.59375q-0.90625 -1.65625 -0.90625 -3.6875q0 -2.03125 0.90625 -3.671875q0.90625 -1.65625 2.53125 -2.59375q1.640625 -0.953125 3.6875 -0.953125q2.03125 0 3.65625 0.953125q1.625 0.953125 2.53125 2.609375q0.90625 1.65625 0.90625 3.65625q0 2.03125 -0.90625 3.6875q-0.90625 1.640625 -2.53125 2.59375q-1.609375 0.9375 -3.65625 0.9375zm0 -2.640625q1.140625 0 2.09375 -0.546875q0.96875 -0.5625 1.546875 -1.59375q0.59375 -1.046875 0.59375 -2.4375q0 -1.390625 -0.59375 -2.421875q-0.578125 -1.046875 -1.546875 -1.59375q-0.953125 -0.5625 -2.09375 -0.5625q-1.140625 0 -2.125 0.5625q-0.96875 0.546875 -1.5625 1.59375q-0.578125 1.03125 -0.578125 2.421875q0 1.390625 0.578125 2.4375q0.59375 1.03125 1.5625 1.59375q0.984375 0.546875 2.125 0.546875zm9.454041 -11.375l2.71875 0l0 1.859375l0.171875 0q0.609375 -1.0 1.71875 -1.640625q1.125 -0.640625 2.46875 -0.640625q1.453125 0 2.53125 0.6875q1.09375 0.6875 1.5625 1.84375q0.71875 -1.15625 1.875 -1.84375q1.171875 -0.6875 2.734375 -0.6875q2.359375 0 3.546875 1.421875q1.203125 1.421875 1.203125 3.875l0 8.71875l-2.84375 0l0 -8.234375q0 -3.140625 -2.671875 -3.140625q-1.46875 0 -2.390625 1.171875q-0.921875 1.171875 -0.921875 2.921875l0 7.28125l-2.84375 0l0 -8.234375q0 -3.140625 -2.75 -3.140625q-1.40625 0 -2.3125 1.1875q-0.90625 1.171875 -0.90625 2.9375l0 7.25l-2.890625 0l0 -13.59375zm23.710205 0l2.71875 0l0 1.84375l0.15625 0q0.578125 -0.96875 1.734375 -1.609375q1.171875 -0.65625 2.640625 -0.65625q1.828125 0 3.3125 0.9375q1.5 0.921875 2.359375 2.5625q0.859375 1.640625 0.859375 3.71875q0 2.078125 -0.859375 3.734375q-0.859375 1.65625 -2.359375 2.578125q-1.484375 0.90625 -3.3125 0.90625q-1.46875 0 -2.640625 -0.640625q-1.15625 -0.65625 -1.734375 -1.59375l-0.15625 0l0.15625 1.890625l0 5.671875l-2.875 0l0 -19.34375zm6.8125 11.375q1.09375 0 2.03125 -0.5625q0.953125 -0.578125 1.515625 -1.609375q0.5625 -1.046875 0.5625 -2.40625q0 -1.359375 -0.5625 -2.390625q-0.5625 -1.046875 -1.515625 -1.609375q-0.9375 -0.578125 -2.03125 -0.578125q-1.0625 0 -2.015625 0.578125q-0.9375 0.5625 -1.515625 1.609375q-0.5625 1.03125 -0.5625 2.390625q0 1.359375 0.5625 2.40625q0.578125 1.03125 1.515625 1.609375q0.953125 0.5625 2.015625 0.5625zm16.001068 2.640625q-2.046875 0 -3.6875 -0.9375q-1.625 -0.953125 -2.53125 -2.59375q-0.90625 -1.65625 -0.90625 -3.6875q0 -2.03125 0.90625 -3.671875q0.90625 -1.65625 2.53125 -2.59375q1.640625 -0.953125 3.6875 -0.953125q2.03125 0 3.65625 0.953125q1.625 0.953125 2.53125 2.609375q0.90625 1.65625 0.90625 3.65625q0 2.03125 -0.90625 3.6875q-0.90625 1.640625 -2.53125 2.59375q-1.609375 0.9375 -3.65625 0.9375zm0 -2.640625q1.140625 0 2.09375 -0.546875q0.96875 -0.5625 1.546875 -1.59375q0.59375 -1.046875 0.59375 -2.4375q0 -1.390625 -0.59375 -2.421875q-0.578125 -1.046875 -1.546875 -1.59375q-0.953125 -0.5625 -2.09375 -0.5625q-1.140625 0 -2.125 0.5625q-0.96875 0.546875 -1.5625 1.59375q-0.578125 1.03125 -0.578125 2.421875q0 1.390625 0.578125 2.4375q0.59375 1.03125 1.5625 1.59375q0.984375 0.546875 2.125 0.546875zm14.556122 2.640625q-2.328125 0 -3.828125 -1.0q-1.5 -1.015625 -2.125 -2.640625l2.59375 -1.125q0.484375 1.09375 1.359375 1.671875q0.875 0.5625 2.0 0.5625q1.140625 0 1.90625 -0.40625q0.78125 -0.421875 0.78125 -1.25q0 -0.734375 -0.65625 -1.171875q-0.640625 -0.453125 -2.03125 -0.765625l-1.625 -0.375q-1.625 -0.40625 -2.703125 -1.40625q-1.0625 -1.015625 -1.0625 -2.5625q0 -1.171875 0.703125 -2.078125q0.71875 -0.90625 1.890625 -1.390625q1.1875 -0.5 2.609375 -0.5q1.921875 0 3.34375 0.75q1.421875 0.734375 2.0625 2.171875l-2.46875 1.125q-0.828125 -1.625 -2.90625 -1.625q-1.015625 0 -1.703125 0.421875q-0.671875 0.421875 -0.671875 1.0625q0 1.203125 2.078125 1.734375l1.96875 0.484375q2.0 0.5 3.015625 1.515625q1.03125 1.015625 1.03125 2.515625q0 1.28125 -0.734375 2.25q-0.71875 0.96875 -2.0 1.5q-1.28125 0.53125 -2.828125 0.53125zm12.465057 0q-1.453125 0 -2.609375 -0.5625q-1.140625 -0.578125 -1.78125 -1.609375q-0.640625 -1.046875 -0.640625 -2.375q0 -1.421875 0.75 -2.4375q0.75 -1.03125 2.015625 -1.578125q1.28125 -0.546875 2.859375 -0.546875q1.203125 0 2.171875 0.234375q0.96875 0.21875 1.5625 0.515625l0 -0.71875q0 -1.3125 -0.96875 -2.125q-0.953125 -0.8125 -2.46875 -0.8125q-1.046875 0 -1.984375 0.46875q-0.921875 0.46875 -1.484375 1.265625l-1.96875 -1.515625q0.875 -1.265625 2.328125 -1.953125q1.453125 -0.6875 3.1875 -0.6875q2.9375 0 4.546875 1.453125q1.609375 1.453125 1.609375 4.0625l0 8.5l-2.796875 0l0 -1.671875l-0.15625 0q-0.59375 0.90625 -1.6875 1.5q-1.09375 0.59375 -2.484375 0.59375zm0.515625 -2.34375q1.0625 0 1.9375 -0.515625q0.890625 -0.515625 1.375 -1.390625q0.5 -0.890625 0.5 -1.90625q-0.640625 -0.375 -1.46875 -0.578125q-0.828125 -0.21875 -1.734375 -0.21875q-1.671875 0 -2.46875 0.671875q-0.78125 0.65625 -0.78125 1.75q0 0.96875 0.71875 1.578125q0.71875 0.609375 1.921875 0.609375zm17.038635 2.34375q-1.46875 0 -2.640625 -0.640625q-1.15625 -0.65625 -1.734375 -1.59375l-0.171875 0l0 1.8125l-2.71875 0l0 -19.078125l2.890625 0l0 5.4375l-0.171875 1.890625l0.171875 0q0.578125 -0.96875 1.734375 -1.609375q1.171875 -0.65625 2.640625 -0.65625q1.828125 0 3.3125 0.9375q1.5 0.921875 2.34375 2.5625q0.859375 1.640625 0.859375 3.71875q0 2.078125 -0.859375 3.734375q-0.84375 1.65625 -2.34375 2.578125q-1.484375 0.90625 -3.3125 0.90625zm-0.4375 -2.640625q1.09375 0 2.03125 -0.5625q0.953125 -0.578125 1.515625 -1.609375q0.5625 -1.046875 0.5625 -2.40625q0 -1.359375 -0.5625 -2.390625q-0.5625 -1.046875 -1.515625 -1.609375q-0.9375 -0.578125 -2.03125 -0.578125q-1.0625 0 -2.015625 0.578125q-0.9375 0.5625 -1.515625 1.609375q-0.578125 1.03125 -0.578125 2.390625q0 1.359375 0.578125 2.40625q0.578125 1.03125 1.515625 1.609375q0.953125 0.5625 2.015625 0.5625zm9.45874 -16.859375l2.890625 0l0 19.078125l-2.890625 0l0 -19.078125zm12.349609 19.5q-1.96875 0 -3.5625 -0.921875q-1.578125 -0.9375 -2.484375 -2.578125q-0.890625 -1.640625 -0.890625 -3.6875q0 -1.953125 0.859375 -3.609375q0.875 -1.671875 2.421875 -2.65625q1.546875 -0.984375 3.5 -0.984375q2.046875 0 3.53125 0.890625q1.5 0.890625 2.28125 2.46875q0.796875 1.5625 0.796875 3.5625q0 0.53125 -0.0625 0.90625l-10.5 0q0.1875 1.953125 1.390625 3.015625q1.203125 1.046875 2.796875 1.046875q1.3125 0 2.234375 -0.59375q0.9375 -0.609375 1.5 -1.59375l2.375 1.140625q-0.9375 1.671875 -2.484375 2.640625q-1.546875 0.953125 -3.703125 0.953125zm3.59375 -8.765625q-0.046875 -0.75 -0.484375 -1.484375q-0.421875 -0.75 -1.234375 -1.234375q-0.8125 -0.5 -2.015625 -0.5q-1.4375 0 -2.4375 0.875q-1.0 0.875 -1.375 2.34375l7.546875 0z" fill-rule="nonzero"/><path fill="#ff8a65" d="m288.06693 177.40384l0 0c0 -4.2669525 3.459076 -7.726013 7.726013 -7.726013l245.39835 0c2.0490723 0 4.014221 0.8139801 5.463135 2.2628937c1.4489136 1.4489136 2.2628784 3.4140625 2.2628784 5.4631195l0 43.22513c0 4.266968 -3.4590454 7.726013 -7.726013 7.726013l-245.39835 0c-4.2669373 0 -7.726013 -3.4590454 -7.726013 -7.726013z" fill-rule="evenodd"/><path fill="#ffffff" d="m350.9187 207.97827q-2.375 0 -4.265625 -1.375q-1.890625 -1.390625 -2.640625 -3.890625l2.78125 -1.125q0.421875 1.59375 1.515625 2.609375q1.09375 1.015625 2.640625 1.015625q1.4375 0 2.4375 -0.75q1.0 -0.75 1.0 -2.046875q0 -1.203125 -0.890625 -1.984375q-0.875 -0.796875 -3.03125 -1.53125l-1.203125 -0.4375q-1.9375 -0.6875 -3.234375 -1.921875q-1.296875 -1.25 -1.296875 -3.296875q0 -1.421875 0.75 -2.609375q0.765625 -1.203125 2.140625 -1.890625q1.375 -0.703125 3.109375 -0.703125q2.484375 0 3.96875 1.21875q1.5 1.203125 2.03125 2.734375l-2.640625 1.109375q-0.265625 -0.953125 -1.125 -1.640625q-0.84375 -0.703125 -2.203125 -0.703125q-1.3125 0 -2.21875 0.703125q-0.90625 0.6875 -0.90625 1.75q0 0.984375 0.8125 1.640625q0.8125 0.65625 2.515625 1.234375l1.234375 0.4375q2.453125 0.84375 3.78125 2.203125q1.328125 1.359375 1.328125 3.625q0 1.875 -0.953125 3.140625q-0.9375 1.265625 -2.421875 1.875q-1.46875 0.609375 -3.015625 0.609375zm14.207489 -0.203125q-0.90625 0 -1.703125 -0.28125q-0.78125 -0.28125 -1.28125 -0.796875q-1.140625 -1.09375 -1.140625 -3.078125l0 -7.15625l-2.375 0l0 -2.5l2.375 0l0 -3.84375l2.875 0l0 3.84375l3.328125 0l0 2.5l-3.328125 0l0 6.53125q0 1.125 0.421875 1.578125q0.453125 0.5 1.390625 0.5q0.484375 0 0.828125 -0.109375q0.34375 -0.125 0.765625 -0.390625l0 2.796875q-0.90625 0.40625 -2.15625 0.40625zm8.870056 0.203125q-1.453125 0 -2.609375 -0.5625q-1.140625 -0.578125 -1.78125 -1.609375q-0.640625 -1.046875 -0.640625 -2.375q0 -1.421875 0.75 -2.4375q0.75 -1.03125 2.015625 -1.578125q1.28125 -0.546875 2.859375 -0.546875q1.203125 0 2.171875 0.234375q0.96875 0.21875 1.5625 0.515625l0 -0.71875q0 -1.3125 -0.96875 -2.125q-0.953125 -0.8125 -2.46875 -0.8125q-1.046875 0 -1.984375 0.46875q-0.921875 0.46875 -1.484375 1.265625l-1.96875 -1.515625q0.875 -1.265625 2.328125 -1.953125q1.453125 -0.6875 3.1875 -0.6875q2.9375 0 4.546875 1.453125q1.609375 1.453125 1.609375 4.0625l0 8.5l-2.796875 0l0 -1.671875l-0.15625 0q-0.59375 0.90625 -1.6875 1.5q-1.09375 0.59375 -2.484375 0.59375zm0.515625 -2.34375q1.0625 0 1.9375 -0.515625q0.890625 -0.515625 1.375 -1.390625q0.5 -0.890625 0.5 -1.90625q-0.640625 -0.375 -1.46875 -0.578125q-0.828125 -0.21875 -1.734375 -0.21875q-1.671875 0 -2.46875 0.671875q-0.78125 0.65625 -0.78125 1.75q0 0.96875 0.71875 1.578125q0.71875 0.609375 1.921875 0.609375zm15.084473 2.140625q-0.90625 0 -1.703125 -0.28125q-0.78125 -0.28125 -1.28125 -0.796875q-1.140625 -1.09375 -1.140625 -3.078125l0 -7.15625l-2.375 0l0 -2.5l2.375 0l0 -3.84375l2.875 0l0 3.84375l3.328125 0l0 2.5l-3.328125 0l0 6.53125q0 1.125 0.421875 1.578125q0.453125 0.5 1.390625 0.5q0.484375 0 0.828125 -0.109375q0.34375 -0.125 0.765625 -0.390625l0 2.796875q-0.90625 0.40625 -2.15625 0.40625zm10.556488 0.203125q-1.96875 0 -3.5625 -0.921875q-1.578125 -0.9375 -2.484375 -2.578125q-0.890625 -1.640625 -0.890625 -3.6875q0 -1.953125 0.859375 -3.609375q0.875 -1.671875 2.421875 -2.65625q1.546875 -0.984375 3.5 -0.984375q2.046875 0 3.53125 0.890625q1.5 0.890625 2.28125 2.46875q0.796875 1.5625 0.796875 3.5625q0 0.53125 -0.0625 0.90625l-10.5 0q0.1875 1.953125 1.390625 3.015625q1.203125 1.046875 2.796875 1.046875q1.3125 0 2.234375 -0.59375q0.9375 -0.609375 1.5 -1.59375l2.375 1.140625q-0.9375 1.671875 -2.484375 2.640625q-1.546875 0.953125 -3.703125 0.953125zm3.59375 -8.765625q-0.046875 -0.75 -0.484375 -1.484375q-0.421875 -0.75 -1.234375 -1.234375q-0.8125 -0.5 -2.015625 -0.5q-1.4375 0 -2.4375 0.875q-1.0 0.875 -1.375 2.34375l7.546875 0zm3.842926 8.34375l0 0zm7.8827515 -19.078125l2.890625 0l0 5.21875l-0.171875 2.125l0.171875 0q0.578125 -1.0 1.734375 -1.640625q1.171875 -0.640625 2.546875 -0.640625q2.484375 0 3.78125 1.484375q1.3125 1.46875 1.3125 3.953125l0 8.578125l-2.84375 0l0 -8.203125q0 -1.578125 -0.84375 -2.375q-0.84375 -0.796875 -2.140625 -0.796875q-0.984375 0 -1.8125 0.578125q-0.8125 0.5625 -1.28125 1.53125q-0.453125 0.953125 -0.453125 2.015625l0 7.25l-2.890625 0l0 -19.078125zm21.946777 19.5q-2.046875 0 -3.6875 -0.9375q-1.625 -0.953125 -2.53125 -2.59375q-0.90625 -1.65625 -0.90625 -3.6875q0 -2.03125 0.90625 -3.671875q0.90625 -1.65625 2.53125 -2.59375q1.640625 -0.953125 3.6875 -0.953125q2.03125 0 3.65625 0.953125q1.625 0.953125 2.53125 2.609375q0.90625 1.65625 0.90625 3.65625q0 2.03125 -0.90625 3.6875q-0.90625 1.640625 -2.53125 2.59375q-1.609375 0.9375 -3.65625 0.9375zm0 -2.640625q1.140625 0 2.09375 -0.546875q0.96875 -0.5625 1.546875 -1.59375q0.59375 -1.046875 0.59375 -2.4375q0 -1.390625 -0.59375 -2.421875q-0.578125 -1.046875 -1.546875 -1.59375q-0.953125 -0.5625 -2.09375 -0.5625q-1.140625 0 -2.125 0.5625q-0.96875 0.546875 -1.5625 1.59375q-0.578125 1.03125 -0.578125 2.421875q0 1.390625 0.578125 2.4375q0.59375 1.03125 1.5625 1.59375q0.984375 0.546875 2.125 0.546875zm9.587402 -16.859375l2.890625 0l0 19.078125l-2.890625 0l0 -19.078125zm11.943359 19.5q-1.828125 0 -3.328125 -0.90625q-1.484375 -0.921875 -2.34375 -2.578125q-0.859375 -1.65625 -0.859375 -3.734375q0 -2.078125 0.859375 -3.71875q0.859375 -1.640625 2.34375 -2.5625q1.5 -0.9375 3.328125 -0.9375q1.5 0 2.640625 0.65625q1.15625 0.640625 1.734375 1.609375l0.15625 0l-0.15625 -1.890625l0 -5.4375l2.859375 0l0 19.078125l-2.703125 0l0 -1.8125l-0.15625 0q-0.578125 0.9375 -1.734375 1.59375q-1.140625 0.640625 -2.640625 0.640625zm0.4375 -2.640625q1.0625 0 2.0 -0.5625q0.953125 -0.578125 1.515625 -1.609375q0.578125 -1.046875 0.578125 -2.40625q0 -1.359375 -0.578125 -2.390625q-0.5625 -1.046875 -1.515625 -1.609375q-0.9375 -0.578125 -2.0 -0.578125q-1.078125 0 -2.03125 0.578125q-0.9375 0.5625 -1.515625 1.609375q-0.5625 1.03125 -0.5625 2.390625q0 1.359375 0.5625 2.40625q0.578125 1.03125 1.515625 1.609375q0.953125 0.5625 2.03125 0.5625zm16.255615 2.640625q-1.96875 0 -3.5625 -0.921875q-1.578125 -0.9375 -2.484375 -2.578125q-0.890625 -1.640625 -0.890625 -3.6875q0 -1.953125 0.859375 -3.609375q0.875 -1.671875 2.421875 -2.65625q1.546875 -0.984375 3.5 -0.984375q2.046875 0 3.53125 0.890625q1.5 0.890625 2.28125 2.46875q0.796875 1.5625 0.796875 3.5625q0 0.53125 -0.0625 0.90625l-10.5 0q0.1875 1.953125 1.390625 3.015625q1.203125 1.046875 2.796875 1.046875q1.3125 0 2.234375 -0.59375q0.9375 -0.609375 1.5 -1.59375l2.375 1.140625q-0.9375 1.671875 -2.484375 2.640625q-1.546875 0.953125 -3.703125 0.953125zm3.59375 -8.765625q-0.046875 -0.75 -0.484375 -1.484375q-0.421875 -0.75 -1.234375 -1.234375q-0.8125 -0.5 -2.015625 -0.5q-1.4375 0 -2.4375 0.875q-1.0 0.875 -1.375 2.34375l7.546875 0zm5.5147705 -5.25l2.71875 0l0 2.0l0.171875 0q0.453125 -1.046875 1.546875 -1.71875q1.109375 -0.6875 2.390625 -0.6875q0.9375 0 1.65625 0.265625l0 2.984375q-1.09375 -0.46875 -2.109375 -0.46875q-1.515625 0 -2.5 1.171875q-0.984375 1.171875 -0.984375 2.84375l0 7.203125l-2.890625 0l0 -13.59375z" fill-rule="nonzero"/><path fill="#000000" fill-opacity="0.0" d="m418.49213 137.11482l0 32.56694" fill-rule="evenodd"/><path stroke="#1a73e8" stroke-width="4.0" stroke-linejoin="round" stroke-linecap="butt" d="m418.49213 137.11482l0 8.56694" fill-rule="evenodd"/><path fill="#1a73e8" stroke="#1a73e8" stroke-width="4.0" stroke-linecap="butt" d="m411.8852 145.68176l6.6069336 18.15239l6.6069336 -18.15239z" fill-rule="evenodd"/><path fill="#3ddb85" d="m288.0748 293.94583l0 0c0 -4.266968 3.459076 -7.726013 7.726013 -7.726013l245.39835 0c2.0490723 0 4.014221 0.81399536 5.463135 2.262909c1.4489136 1.4489136 2.2628784 3.414032 2.2628784 5.4631042l0 43.22513c0 4.266968 -3.4590454 7.726013 -7.726013 7.726013l-245.39835 0c-4.2669373 0 -7.726013 -3.4590454 -7.726013 -7.726013z" fill-rule="evenodd"/><path fill="#ffffff" d="m350.22235 305.02026l3.203125 0l4.3125 12.6875l0.671875 2.15625l0.15625 0l0.71875 -2.15625l4.5 -12.6875l3.203125 0l-6.953125 19.078125l-3.046875 0l-6.765625 -19.078125zm19.932861 3.484375q-0.796875 0 -1.375 -0.5625q-0.5625 -0.578125 -0.5625 -1.390625q0 -0.796875 0.5625 -1.34375q0.578125 -0.5625 1.375 -0.5625q0.796875 0 1.375 0.5625q0.578125 0.546875 0.578125 1.34375q0 0.8125 -0.578125 1.390625q-0.578125 0.5625 -1.375 0.5625zm-1.4375 2.0l2.875 0l0 13.59375l-2.875 0l0 -13.59375zm12.530701 14.015625q-1.96875 0 -3.5625 -0.921875q-1.578125 -0.9375 -2.484375 -2.578125q-0.890625 -1.640625 -0.890625 -3.6875q0 -1.953125 0.859375 -3.609375q0.875 -1.671875 2.421875 -2.65625q1.546875 -0.984375 3.5 -0.984375q2.046875 0 3.53125 0.890625q1.5 0.890625 2.28125 2.46875q0.796875 1.5625 0.796875 3.5625q0 0.53125 -0.0625 0.90625l-10.5 0q0.1875 1.953125 1.390625 3.015625q1.203125 1.046875 2.796875 1.046875q1.3125 0 2.234375 -0.59375q0.9375 -0.609375 1.5 -1.59375l2.375 1.140625q-0.9375 1.671875 -2.484375 2.640625q-1.546875 0.953125 -3.703125 0.953125zm3.59375 -8.765625q-0.046875 -0.75 -0.484375 -1.484375q-0.421875 -0.75 -1.234375 -1.234375q-0.8125 -0.5 -2.015625 -0.5q-1.4375 0 -2.4375 0.875q-1.0 0.875 -1.375 2.34375l7.546875 0zm3.7637634 -5.25l3.125 0l2.796875 9.78125l0.09375 0l3.078125 -9.78125l2.953125 0l3.0625 9.78125l0.109375 0l2.796875 -9.78125l3.0625 0l-4.359375 13.59375l-3.015625 0l-3.140625 -9.84375l-0.109375 0l-3.125 9.84375l-2.984375 0l-4.34375 -13.59375zm23.42694 -5.484375l3.953125 0l5.5625 14.515625l0.15625 0l5.609375 -14.515625l3.9375 0l0 19.078125l-2.875 0l0 -10.796875l0.15625 -3.390625l-0.15625 0l-5.578125 14.1875l-2.3125 0l-5.578125 -14.1875l-0.15625 0l0.15625 3.390625l0 10.796875l-2.875 0l0 -19.078125zm29.192596 19.5q-2.046875 0 -3.6875 -0.9375q-1.625 -0.953125 -2.53125 -2.59375q-0.90625 -1.65625 -0.90625 -3.6875q0 -2.03125 0.90625 -3.671875q0.90625 -1.65625 2.53125 -2.59375q1.640625 -0.953125 3.6875 -0.953125q2.03125 0 3.65625 0.953125q1.625 0.953125 2.53125 2.609375q0.90625 1.65625 0.90625 3.65625q0 2.03125 -0.90625 3.6875q-0.90625 1.640625 -2.53125 2.59375q-1.609375 0.9375 -3.65625 0.9375zm0 -2.640625q1.140625 0 2.09375 -0.546875q0.96875 -0.5625 1.546875 -1.59375q0.59375 -1.046875 0.59375 -2.4375q0 -1.390625 -0.59375 -2.421875q-0.578125 -1.046875 -1.546875 -1.59375q-0.953125 -0.5625 -2.09375 -0.5625q-1.140625 0 -2.125 0.5625q-0.96875 0.546875 -1.5625 1.59375q-0.578125 1.03125 -0.578125 2.421875q0 1.390625 0.578125 2.4375q0.59375 1.03125 1.5625 1.59375q0.984375 0.546875 2.125 0.546875zm15.533234 2.640625q-1.828125 0 -3.328125 -0.90625q-1.484375 -0.921875 -2.34375 -2.578125q-0.859375 -1.65625 -0.859375 -3.734375q0 -2.078125 0.859375 -3.71875q0.859375 -1.640625 2.34375 -2.5625q1.5 -0.9375 3.328125 -0.9375q1.5 0 2.640625 0.65625q1.15625 0.640625 1.734375 1.609375l0.15625 0l-0.15625 -1.890625l0 -5.4375l2.859375 0l0 19.078125l-2.703125 0l0 -1.8125l-0.15625 0q-0.578125 0.9375 -1.734375 1.59375q-1.140625 0.640625 -2.640625 0.640625zm0.4375 -2.640625q1.0625 0 2.0 -0.5625q0.953125 -0.578125 1.515625 -1.609375q0.578125 -1.046875 0.578125 -2.40625q0 -1.359375 -0.578125 -2.390625q-0.5625 -1.046875 -1.515625 -1.609375q-0.9375 -0.578125 -2.0 -0.578125q-1.078125 0 -2.03125 0.578125q-0.9375 0.5625 -1.515625 1.609375q-0.5625 1.03125 -0.5625 2.390625q0 1.359375 0.5625 2.40625q0.578125 1.03125 1.515625 1.609375q0.953125 0.5625 2.03125 0.5625zm16.255615 2.640625q-1.96875 0 -3.5625 -0.921875q-1.578125 -0.9375 -2.484375 -2.578125q-0.890625 -1.640625 -0.890625 -3.6875q0 -1.953125 0.859375 -3.609375q0.875 -1.671875 2.421875 -2.65625q1.546875 -0.984375 3.5 -0.984375q2.046875 0 3.53125 0.890625q1.5 0.890625 2.28125 2.46875q0.796875 1.5625 0.796875 3.5625q0 0.53125 -0.0625 0.90625l-10.5 0q0.1875 1.953125 1.390625 3.015625q1.203125 1.046875 2.796875 1.046875q1.3125 0 2.234375 -0.59375q0.9375 -0.609375 1.5 -1.59375l2.375 1.140625q-0.9375 1.671875 -2.484375 2.640625q-1.546875 0.953125 -3.703125 0.953125zm3.59375 -8.765625q-0.046875 -0.75 -0.484375 -1.484375q-0.421875 -0.75 -1.234375 -1.234375q-0.8125 -0.5 -2.015625 -0.5q-1.4375 0 -2.4375 0.875q-1.0 0.875 -1.375 2.34375l7.546875 0zm5.5147705 -10.734375l2.890625 0l0 19.078125l-2.890625 0l0 -19.078125z" fill-rule="nonzero"/><path fill="#ffffff" d="m43.883713 72.35203l223.49605 0l0 70.77166l-223.49605 0z" fill-rule="evenodd"/><path fill="#202124" d="m137.11302 84.07528l-5.609375 0l0 -3.578125l14.984375 0l0 3.578125l-5.59375 0l0 16.46875l-3.78125 0l0 -16.46875zm11.901566 -3.578125l3.65625 0l0 5.0625l-0.21875 2.5l0.21875 0q0.625 -1.015625 1.796875 -1.625q1.171875 -0.625 2.546875 -0.625q2.609375 0 3.984375 1.5625q1.390625 1.546875 1.390625 4.296875l0 8.875l-3.65625 0l0 -8.421875q0 -1.375 -0.75 -2.125q-0.734375 -0.765625 -1.96875 -0.765625q-1.453125 0 -2.40625 1.1875q-0.9375 1.171875 -0.9375 2.875l0 7.25l-3.65625 0l0 -20.046875zm23.543564 20.5q-2.125 0 -3.84375 -0.984375q-1.703125 -0.984375 -2.671875 -2.703125q-0.953125 -1.71875 -0.953125 -3.875q0 -2.046875 0.9375 -3.796875q0.953125 -1.75 2.625 -2.78125q1.6875 -1.046875 3.765625 -1.046875q2.21875 0 3.8125 0.953125q1.59375 0.953125 2.421875 2.609375q0.828125 1.65625 0.828125 3.671875q0 0.640625 -0.09375 1.234375l-10.71875 0q0.28125 1.703125 1.359375 2.59375q1.078125 0.875 2.59375 0.875q1.25 0 2.15625 -0.546875q0.921875 -0.546875 1.453125 -1.46875l2.96875 1.453125q-2.1875 3.8125 -6.640625 3.8125zm3.390625 -9.328125q-0.0625 -0.671875 -0.5 -1.328125q-0.421875 -0.65625 -1.203125 -1.09375q-0.765625 -0.4375 -1.796875 -0.4375q-1.3125 0 -2.25 0.78125q-0.9375 0.765625 -1.359375 2.078125l7.109375 0z" fill-rule="nonzero"/><path fill="#202124" d="m81.31262 131.23715q-2.90625 0 -5.3125 -1.390625q-2.40625 -1.390625 -3.796875 -3.78125q-1.390625 -2.390625 -1.390625 -5.3125q0 -2.90625 1.390625 -5.296875q1.390625 -2.390625 3.796875 -3.78125q2.40625 -1.390625 5.3125 -1.390625q4.546875 0 7.515625 3.28125l-2.671875 2.578125q-1.921875 -2.265625 -4.8125 -2.265625q-1.875 0 -3.421875 0.859375q-1.53125 0.84375 -2.421875 2.421875q-0.875 1.5625 -0.875 3.59375q0 2.046875 0.875 3.625q0.890625 1.5625 2.421875 2.421875q1.546875 0.84375 3.421875 0.84375q3.171875 0 5.296875 -2.625l2.6875 2.546875q-1.484375 1.796875 -3.515625 2.734375q-2.03125 0.9375 -4.5 0.9375zm17.283844 0q-2.21875 0 -3.953125 -1.0q-1.734375 -1.0 -2.703125 -2.71875q-0.953125 -1.71875 -0.953125 -3.875q0 -2.125 0.953125 -3.859375q0.96875 -1.734375 2.703125 -2.734375q1.734375 -1.0 3.953125 -1.0q2.1875 0 3.921875 1.0q1.734375 1.0 2.703125 2.734375q0.96875 1.734375 0.96875 3.859375q0 2.15625 -0.96875 3.875q-0.96875 1.71875 -2.703125 2.71875q-1.734375 1.0 -3.921875 1.0zm0 -3.390625q1.0625 0 1.953125 -0.5q0.90625 -0.515625 1.4375 -1.46875q0.53125 -0.953125 0.53125 -2.234375q0 -1.265625 -0.53125 -2.203125q-0.53125 -0.953125 -1.4375 -1.453125q-0.890625 -0.515625 -1.953125 -0.515625q-1.0625 0 -1.96875 0.515625q-0.890625 0.5 -1.4375 1.453125q-0.546875 0.9375 -0.546875 2.203125q0 1.265625 0.546875 2.234375q0.546875 0.953125 1.4375 1.46875q0.90625 0.5 1.96875 0.5zm10.111954 -11.34375l3.4375 0l0 1.796875l0.21875 0q0.671875 -1.046875 1.8125 -1.640625q1.140625 -0.609375 2.53125 -0.609375q1.515625 0 2.625 0.71875q1.125 0.71875 1.609375 1.8125q0.703125 -1.125 1.921875 -1.828125q1.21875 -0.703125 2.859375 -0.703125q2.4375 0 3.703125 1.5q1.28125 1.5 1.28125 4.046875l0 9.1875l-3.640625 0l0 -8.515625q0 -1.34375 -0.625 -2.0625q-0.625 -0.734375 -1.75 -0.734375q-1.421875 0 -2.28125 1.140625q-0.859375 1.125 -0.859375 2.96875l0 7.203125l-3.671875 0l0 -8.515625q0 -1.34375 -0.65625 -2.0625q-0.65625 -0.734375 -1.859375 -0.734375q-1.34375 0 -2.171875 1.140625q-0.828125 1.125 -0.828125 2.96875l0 7.203125l-3.65625 0l0 -14.28125zm25.398727 0l3.4375 0l0 1.734375l0.21875 0q0.59375 -0.921875 1.703125 -1.546875q1.125 -0.640625 2.578125 -0.640625q1.9375 0 3.515625 0.96875q1.59375 0.96875 2.484375 2.703125q0.890625 1.734375 0.890625 3.921875q0 2.21875 -0.890625 3.9375q-0.890625 1.71875 -2.484375 2.6875q-1.578125 0.96875 -3.515625 0.96875q-1.453125 0 -2.59375 -0.609375q-1.125 -0.625 -1.6875 -1.546875l-0.21875 0l0.21875 2.015625l0 5.734375l-3.65625 0l0 -20.328125zm7.296875 11.34375q1.046875 0 1.9375 -0.53125q0.890625 -0.53125 1.421875 -1.484375q0.53125 -0.953125 0.53125 -2.1875q0 -1.234375 -0.53125 -2.1875q-0.53125 -0.953125 -1.421875 -1.46875q-0.890625 -0.515625 -1.9375 -0.515625q-1.0 0 -1.90625 0.515625q-0.890625 0.515625 -1.421875 1.46875q-0.53125 0.953125 -0.53125 2.1875q0 1.234375 0.53125 2.1875q0.53125 0.953125 1.421875 1.484375q0.90625 0.53125 1.90625 0.53125zm17.196701 3.390625q-2.21875 0 -3.953125 -1.0q-1.734375 -1.0 -2.703125 -2.71875q-0.953125 -1.71875 -0.953125 -3.875q0 -2.125 0.953125 -3.859375q0.96875 -1.734375 2.703125 -2.734375q1.734375 -1.0 3.953125 -1.0q2.1875 0 3.921875 1.0q1.734375 1.0 2.703125 2.734375q0.96875 1.734375 0.96875 3.859375q0 2.15625 -0.96875 3.875q-0.96875 1.71875 -2.703125 2.71875q-1.734375 1.0 -3.921875 1.0zm0 -3.390625q1.0625 0 1.953125 -0.5q0.90625 -0.515625 1.4375 -1.46875q0.53125 -0.953125 0.53125 -2.234375q0 -1.265625 -0.53125 -2.203125q-0.53125 -0.953125 -1.4375 -1.453125q-0.890625 -0.515625 -1.953125 -0.515625q-1.0625 0 -1.96875 0.515625q-0.890625 0.5 -1.4375 1.453125q-0.546875 0.9375 -0.546875 2.203125q0 1.265625 0.546875 2.234375q0.546875 0.953125 1.4375 1.46875q0.90625 0.5 1.96875 0.5zm15.673828 3.390625q-2.59375 0 -4.203125 -1.0625q-1.609375 -1.078125 -2.265625 -2.78125l3.28125 -1.421875q0.453125 1.0 1.265625 1.53125q0.828125 0.515625 1.921875 0.515625q1.015625 0 1.6875 -0.328125q0.671875 -0.328125 0.671875 -1.046875q0 -0.703125 -0.625 -1.046875q-0.609375 -0.359375 -1.84375 -0.640625l-1.671875 -0.359375q-1.734375 -0.421875 -2.890625 -1.515625q-1.140625 -1.109375 -1.140625 -2.765625q0 -1.234375 0.734375 -2.203125q0.75 -0.984375 2.015625 -1.515625q1.28125 -0.546875 2.8125 -0.546875q4.421875 0 5.90625 3.109375l-3.125 1.375q-0.84375 -1.515625 -2.6875 -1.515625q-0.953125 0 -1.515625 0.359375q-0.5625 0.34375 -0.5625 0.875q0 1.015625 1.90625 1.515625l2.09375 0.5q2.125 0.53125 3.203125 1.625q1.078125 1.09375 1.078125 2.6875q0 1.375 -0.796875 2.421875q-0.796875 1.046875 -2.1875 1.640625q-1.375 0.59375 -3.0625 0.59375zm10.640686 -16.296875q-0.96875 0 -1.671875 -0.703125q-0.703125 -0.703125 -0.703125 -1.6875q0 -0.96875 0.703125 -1.65625q0.703125 -0.6875 1.671875 -0.6875q0.984375 0 1.671875 0.6875q0.6875 0.6875 0.6875 1.65625q0 0.984375 -0.6875 1.6875q-0.6875 0.703125 -1.671875 0.703125zm-1.84375 1.5625l3.671875 0l0 14.28125l-3.671875 0l0 -14.28125zm13.560028 14.5q-1.078125 0 -1.96875 -0.3125q-0.890625 -0.328125 -1.453125 -0.890625q-1.3125 -1.25 -1.3125 -3.578125l0 -6.578125l-2.5 0l0 -3.140625l2.5 0l0 -4.03125l3.65625 0l0 4.03125l3.5 0l0 3.140625l-3.5 0l0 5.90625q0 1.09375 0.484375 1.5625q0.390625 0.453125 1.34375 0.453125q0.53125 0 0.875 -0.140625q0.359375 -0.140625 0.921875 -0.484375l0 3.59375q-1.203125 0.46875 -2.546875 0.46875zm7.687805 -16.0625q-0.96875 0 -1.671875 -0.703125q-0.703125 -0.703125 -0.703125 -1.6875q0 -0.96875 0.703125 -1.65625q0.703125 -0.6875 1.671875 -0.6875q0.984375 0 1.671875 0.6875q0.6875 0.6875 0.6875 1.65625q0 0.984375 -0.6875 1.6875q-0.6875 0.703125 -1.671875 0.703125zm-1.84375 1.5625l3.671875 0l0 14.28125l-3.671875 0l0 -14.28125zm14.169403 14.734375q-2.21875 0 -3.953125 -1.0q-1.734375 -1.0 -2.703125 -2.71875q-0.953125 -1.71875 -0.953125 -3.875q0 -2.125 0.953125 -3.859375q0.96875 -1.734375 2.703125 -2.734375q1.734375 -1.0 3.953125 -1.0q2.1875 0 3.921875 1.0q1.734375 1.0 2.703125 2.734375q0.96875 1.734375 0.96875 3.859375q0 2.15625 -0.96875 3.875q-0.96875 1.71875 -2.703125 2.71875q-1.734375 1.0 -3.921875 1.0zm0 -3.390625q1.0625 0 1.953125 -0.5q0.90625 -0.515625 1.4375 -1.46875q0.53125 -0.953125 0.53125 -2.234375q0 -1.265625 -0.53125 -2.203125q-0.53125 -0.953125 -1.4375 -1.453125q-0.890625 -0.515625 -1.953125 -0.515625q-1.0625 0 -1.96875 0.515625q-0.890625 0.5 -1.4375 1.453125q-0.546875 0.9375 -0.546875 2.203125q0 1.265625 0.546875 2.234375q0.546875 0.953125 1.4375 1.46875q0.90625 0.5 1.96875 0.5zm10.111954 -11.34375l3.4375 0l0 1.796875l0.21875 0q0.65625 -1.046875 1.828125 -1.640625q1.171875 -0.609375 2.546875 -0.609375q2.578125 0 3.921875 1.578125q1.34375 1.5625 1.34375 4.28125l0 8.875l-3.671875 0l0 -8.421875q0 -1.375 -0.703125 -2.125q-0.6875 -0.765625 -1.953125 -0.765625q-1.484375 0 -2.40625 1.15625q-0.90625 1.140625 -0.90625 2.875l0 7.28125l-3.65625 0l0 -14.28125z" fill-rule="nonzero"/><path fill="#000000" fill-opacity="0.0" d="m418.49213 228.35498l0 57.858276" fill-rule="evenodd"/><path stroke="#ff8a65" stroke-width="4.0" stroke-linejoin="round" stroke-linecap="butt" d="m418.49213 228.35498l0 33.858276" fill-rule="evenodd"/><path fill="#ff8a65" stroke="#ff8a65" stroke-width="4.0" stroke-linecap="butt" d="m411.8852 262.21326l6.6069336 18.152374l6.6069336 -18.152374z" fill-rule="evenodd"/><path fill="#083042" d="m288.06824 397.9112l0 0c0 -5.741974 4.654785 -10.3967285 10.396759 -10.3967285l240.05692 0c2.7573853 0 5.4017944 1.0953674 7.3515625 3.0451355c1.9497681 1.9497681 3.045166 4.594208 3.045166 7.351593l0 58.167145c0 5.741974 -4.654785 10.3967285 -10.3967285 10.3967285l-240.05692 0c-5.741974 0 -10.396759 -4.6547546 -10.396759 -10.3967285z" fill-rule="evenodd"/><path fill="#ffffff" d="m326.7402 401.95663l6.109375 0q2.953125 0 5.15625 1.203125q2.203125 1.1875 3.390625 3.359375q1.1875 2.171875 1.1875 4.96875q0 2.796875 -1.1875 4.96875q-1.1875 2.171875 -3.390625 3.375q-2.203125 1.203125 -5.15625 1.203125l-6.109375 0l0 -19.078125zm6.03125 16.3125q3.25 0 5.046875 -1.796875q1.796875 -1.8125 1.796875 -4.984375q0 -3.171875 -1.796875 -4.96875q-1.796875 -1.796875 -5.046875 -1.796875l-3.09375 0l0 13.546875l3.09375 0zm16.942444 3.1875q-1.453125 0 -2.609375 -0.5625q-1.140625 -0.578125 -1.78125 -1.609375q-0.640625 -1.046875 -0.640625 -2.375q0 -1.421875 0.75 -2.4375q0.75 -1.03125 2.015625 -1.578125q1.28125 -0.546875 2.859375 -0.546875q1.203125 0 2.171875 0.234375q0.96875 0.21875 1.5625 0.515625l0 -0.71875q0 -1.3125 -0.96875 -2.125q-0.953125 -0.8125 -2.46875 -0.8125q-1.046875 0 -1.984375 0.46875q-0.921875 0.46875 -1.484375 1.265625l-1.96875 -1.515625q0.875 -1.265625 2.328125 -1.953125q1.453125 -0.6875 3.1875 -0.6875q2.9375 0 4.546875 1.453125q1.609375 1.453125 1.609375 4.0625l0 8.5l-2.796875 0l0 -1.671875l-0.15625 0q-0.59375 0.90625 -1.6875 1.5q-1.09375 0.59375 -2.484375 0.59375zm0.515625 -2.34375q1.0625 0 1.9375 -0.515625q0.890625 -0.515625 1.375 -1.390625q0.5 -0.890625 0.5 -1.90625q-0.640625 -0.375 -1.46875 -0.578125q-0.828125 -0.21875 -1.734375 -0.21875q-1.671875 0 -2.46875 0.671875q-0.78125 0.65625 -0.78125 1.75q0 0.96875 0.71875 1.578125q0.71875 0.609375 1.921875 0.609375zm15.084473 2.140625q-0.90625 0 -1.703125 -0.28125q-0.78125 -0.28125 -1.28125 -0.796875q-1.140625 -1.09375 -1.140625 -3.078125l0 -7.15625l-2.375 0l0 -2.5l2.375 0l0 -3.84375l2.875 0l0 3.84375l3.328125 0l0 2.5l-3.328125 0l0 6.53125q0 1.125 0.421875 1.578125q0.453125 0.5 1.390625 0.5q0.484375 0 0.828125 -0.109375q0.34375 -0.125 0.765625 -0.390625l0 2.796875q-0.90625 0.40625 -2.15625 0.40625zm8.870056 0.203125q-1.453125 0 -2.609375 -0.5625q-1.140625 -0.578125 -1.78125 -1.609375q-0.640625 -1.046875 -0.640625 -2.375q0 -1.421875 0.75 -2.4375q0.75 -1.03125 2.015625 -1.578125q1.28125 -0.546875 2.859375 -0.546875q1.203125 0 2.171875 0.234375q0.96875 0.21875 1.5625 0.515625l0 -0.71875q0 -1.3125 -0.96875 -2.125q-0.953125 -0.8125 -2.46875 -0.8125q-1.046875 0 -1.984375 0.46875q-0.921875 0.46875 -1.484375 1.265625l-1.96875 -1.515625q0.875 -1.265625 2.328125 -1.953125q1.453125 -0.6875 3.1875 -0.6875q2.9375 0 4.546875 1.453125q1.609375 1.453125 1.609375 4.0625l0 8.5l-2.796875 0l0 -1.671875l-0.15625 0q-0.59375 0.90625 -1.6875 1.5q-1.09375 0.59375 -2.484375 0.59375zm0.515625 -2.34375q1.0625 0 1.9375 -0.515625q0.890625 -0.515625 1.375 -1.390625q0.5 -0.890625 0.5 -1.90625q-0.640625 -0.375 -1.46875 -0.578125q-0.828125 -0.21875 -1.734375 -0.21875q-1.671875 0 -2.46875 0.671875q-0.78125 0.65625 -0.78125 1.75q0 0.96875 0.71875 1.578125q0.71875 0.609375 1.921875 0.609375zm8.101135 1.921875l0 0zm12.054626 -19.078125l2.734375 0l-5.8125 19.078125l-2.734375 0l5.8125 -19.078125zm2.7661743 19.078125l0 0zm8.367126 -19.078125l7.140625 0q1.53125 0 2.828125 0.671875q1.3125 0.65625 2.0625 1.8125q0.765625 1.15625 0.765625 2.578125q0 1.40625 -0.703125 2.46875q-0.703125 1.046875 -1.875 1.609375l0 0.125q1.484375 0.515625 2.359375 1.6875q0.890625 1.171875 0.890625 2.765625q0 1.578125 -0.8125 2.796875q-0.8125 1.203125 -2.1875 1.890625q-1.375 0.671875 -3.0 0.671875l-7.46875 0l0 -19.078125zm7.015625 8.015625q1.328125 0 2.125 -0.8125q0.8125 -0.8125 0.8125 -1.875q0 -1.078125 -0.796875 -1.859375q-0.78125 -0.78125 -2.03125 -0.78125l-4.1875 0l0 5.328125l4.078125 0zm0.453125 8.34375q1.390625 0 2.21875 -0.828125q0.84375 -0.84375 0.84375 -2.03125q0 -1.171875 -0.875 -2.015625q-0.859375 -0.859375 -2.296875 -0.859375l-4.421875 0l0 5.734375l4.53125 0zm13.671143 3.140625q-2.453125 0 -3.75 -1.46875q-1.28125 -1.484375 -1.28125 -4.125l0 -8.421875l2.875 0l0 8.015625q0 1.65625 0.765625 2.515625q0.78125 0.84375 2.078125 0.84375q1.078125 0 1.890625 -0.546875q0.828125 -0.5625 1.265625 -1.5q0.453125 -0.9375 0.453125 -2.03125l0 -7.296875l2.84375 0l0 13.59375l-2.6875 0l0 -1.84375l-0.15625 0q-0.59375 0.984375 -1.765625 1.625q-1.171875 0.640625 -2.53125 0.640625zm15.35849 0q-2.328125 0 -3.828125 -1.0q-1.5 -1.015625 -2.125 -2.640625l2.59375 -1.125q0.484375 1.09375 1.359375 1.671875q0.875 0.5625 2.0 0.5625q1.140625 0 1.90625 -0.40625q0.78125 -0.421875 0.78125 -1.25q0 -0.734375 -0.65625 -1.171875q-0.640625 -0.453125 -2.03125 -0.765625l-1.625 -0.375q-1.625 -0.40625 -2.703125 -1.40625q-1.0625 -1.015625 -1.0625 -2.5625q0 -1.171875 0.703125 -2.078125q0.71875 -0.90625 1.890625 -1.390625q1.1875 -0.5 2.609375 -0.5q1.921875 0 3.34375 0.75q1.421875 0.734375 2.0625 2.171875l-2.46875 1.125q-0.828125 -1.625 -2.90625 -1.625q-1.015625 0 -1.703125 0.421875q-0.671875 0.421875 -0.671875 1.0625q0 1.203125 2.078125 1.734375l1.96875 0.484375q2.0 0.5 3.015625 1.515625q1.03125 1.015625 1.03125 2.515625q0 1.28125 -0.734375 2.25q-0.71875 0.96875 -2.0 1.5q-1.28125 0.53125 -2.828125 0.53125zm9.58902 -16.015625q-0.796875 0 -1.375 -0.5625q-0.5625 -0.578125 -0.5625 -1.390625q0 -0.796875 0.5625 -1.34375q0.578125 -0.5625 1.375 -0.5625q0.796875 0 1.375 0.5625q0.578125 0.546875 0.578125 1.34375q0 0.8125 -0.578125 1.390625q-0.578125 0.5625 -1.375 0.5625zm-1.4375 2.0l2.875 0l0 13.59375l-2.875 0l0 -13.59375zm6.445282 0l2.71875 0l0 1.859375l0.171875 0q0.578125 -1.0 1.75 -1.640625q1.171875 -0.640625 2.53125 -0.640625q2.453125 0 3.734375 1.453125q1.28125 1.453125 1.28125 3.984375l0 8.578125l-2.84375 0l0 -8.203125q0 -1.609375 -0.8125 -2.390625q-0.796875 -0.78125 -2.171875 -0.78125q-1.015625 0 -1.8125 0.5625q-0.78125 0.546875 -1.21875 1.484375q-0.4375 0.9375 -0.4375 2.03125l0 7.296875l-2.890625 0l0 -13.59375zm21.679321 14.015625q-1.96875 0 -3.5625 -0.921875q-1.578125 -0.9375 -2.484375 -2.578125q-0.890625 -1.640625 -0.890625 -3.6875q0 -1.953125 0.859375 -3.609375q0.875 -1.671875 2.421875 -2.65625q1.546875 -0.984375 3.5 -0.984375q2.046875 0 3.53125 0.890625q1.5 0.890625 2.28125 2.46875q0.796875 1.5625 0.796875 3.5625q0 0.53125 -0.0625 0.90625l-10.5 0q0.1875 1.953125 1.390625 3.015625q1.203125 1.046875 2.796875 1.046875q1.3125 0 2.234375 -0.59375q0.9375 -0.609375 1.5 -1.59375l2.375 1.140625q-0.9375 1.671875 -2.484375 2.640625q-1.546875 0.953125 -3.703125 0.953125zm3.59375 -8.765625q-0.046875 -0.75 -0.484375 -1.484375q-0.421875 -0.75 -1.234375 -1.234375q-0.8125 -0.5 -2.015625 -0.5q-1.4375 0 -2.4375 0.875q-1.0 0.875 -1.375 2.34375l7.546875 0zm10.616852 8.765625q-2.328125 0 -3.828125 -1.0q-1.5 -1.015625 -2.125 -2.640625l2.59375 -1.125q0.484375 1.09375 1.359375 1.671875q0.875 0.5625 2.0 0.5625q1.140625 0 1.90625 -0.40625q0.78125 -0.421875 0.78125 -1.25q0 -0.734375 -0.65625 -1.171875q-0.640625 -0.453125 -2.03125 -0.765625l-1.625 -0.375q-1.625 -0.40625 -2.703125 -1.40625q-1.0625 -1.015625 -1.0625 -2.5625q0 -1.171875 0.703125 -2.078125q0.71875 -0.90625 1.890625 -1.390625q1.1875 -0.5 2.609375 -0.5q1.921875 0 3.34375 0.75q1.421875 0.734375 2.0625 2.171875l-2.46875 1.125q-0.828125 -1.625 -2.90625 -1.625q-1.015625 0 -1.703125 0.421875q-0.671875 0.421875 -0.671875 1.0625q0 1.203125 2.078125 1.734375l1.96875 0.484375q2.0 0.5 3.015625 1.515625q1.03125 1.015625 1.03125 2.515625q0 1.28125 -0.734375 2.25q-0.71875 0.96875 -2.0 1.5q-1.28125 0.53125 -2.828125 0.53125zm13.034851 0q-2.328125 0 -3.828125 -1.0q-1.5 -1.015625 -2.125 -2.640625l2.59375 -1.125q0.484375 1.09375 1.359375 1.671875q0.875 0.5625 2.0 0.5625q1.140625 0 1.90625 -0.40625q0.78125 -0.421875 0.78125 -1.25q0 -0.734375 -0.65625 -1.171875q-0.640625 -0.453125 -2.03125 -0.765625l-1.625 -0.375q-1.625 -0.40625 -2.703125 -1.40625q-1.0625 -1.015625 -1.0625 -2.5625q0 -1.171875 0.703125 -2.078125q0.71875 -0.90625 1.890625 -1.390625q1.1875 -0.5 2.609375 -0.5q1.921875 0 3.34375 0.75q1.421875 0.734375 2.0625 2.171875l-2.46875 1.125q-0.828125 -1.625 -2.90625 -1.625q-1.015625 0 -1.703125 0.421875q-0.671875 0.421875 -0.671875 1.0625q0 1.203125 2.078125 1.734375l1.96875 0.484375q2.0 0.5 3.015625 1.515625q1.03125 1.015625 1.03125 2.515625q0 1.28125 -0.734375 2.25q-0.71875 0.96875 -2.0 1.5q-1.28125 0.53125 -2.828125 0.53125z" fill-rule="nonzero"/><path fill="#ffffff" d="m386.41003 430.95663l2.9375 0l0 16.3125l8.203125 0l0 2.765625l-11.140625 0l0 -19.078125zm17.908997 19.5q-1.453125 0 -2.609375 -0.5625q-1.140625 -0.578125 -1.78125 -1.609375q-0.640625 -1.046875 -0.640625 -2.375q0 -1.421875 0.75 -2.4375q0.75 -1.03125 2.015625 -1.578125q1.28125 -0.546875 2.859375 -0.546875q1.203125 0 2.171875 0.234375q0.96875 0.21875 1.5625 0.515625l0 -0.71875q0 -1.3125 -0.96875 -2.125q-0.953125 -0.8125 -2.46875 -0.8125q-1.046875 0 -1.984375 0.46875q-0.921875 0.46875 -1.484375 1.265625l-1.96875 -1.515625q0.875 -1.265625 2.328125 -1.953125q1.453125 -0.6875 3.1875 -0.6875q2.9375 0 4.546875 1.453125q1.609375 1.453125 1.609375 4.0625l0 8.5l-2.796875 0l0 -1.671875l-0.15625 0q-0.59375 0.90625 -1.6875 1.5q-1.09375 0.59375 -2.484375 0.59375zm0.515625 -2.34375q1.0625 0 1.9375 -0.515625q0.890625 -0.515625 1.375 -1.390625q0.5 -0.890625 0.5 -1.90625q-0.640625 -0.375 -1.46875 -0.578125q-0.828125 -0.21875 -1.734375 -0.21875q-1.671875 0 -2.46875 0.671875q-0.78125 0.65625 -0.78125 1.75q0 0.96875 0.71875 1.578125q0.71875 0.609375 1.921875 0.609375zm13.725098 1.171875l-5.671875 -12.84375l3.1875 0l3.890625 9.28125l0.140625 0l3.765625 -9.28125l3.171875 0l-8.40625 19.34375l-3.0625 0l2.984375 -6.5zm16.047577 1.171875q-1.96875 0 -3.5625 -0.921875q-1.578125 -0.9375 -2.484375 -2.578125q-0.890625 -1.640625 -0.890625 -3.6875q0 -1.953125 0.859375 -3.609375q0.875 -1.671875 2.421875 -2.65625q1.546875 -0.984375 3.5 -0.984375q2.046875 0 3.53125 0.890625q1.5 0.890625 2.28125 2.46875q0.796875 1.5625 0.796875 3.5625q0 0.53125 -0.0625 0.90625l-10.5 0q0.1875 1.953125 1.390625 3.015625q1.203125 1.046875 2.796875 1.046875q1.3125 0 2.234375 -0.59375q0.9375 -0.609375 1.5 -1.59375l2.375 1.140625q-0.9375 1.671875 -2.484375 2.640625q-1.546875 0.953125 -3.703125 0.953125zm3.59375 -8.765625q-0.046875 -0.75 -0.484375 -1.484375q-0.421875 -0.75 -1.234375 -1.234375q-0.8125 -0.5 -2.015625 -0.5q-1.4375 0 -2.4375 0.875q-1.0 0.875 -1.375 2.34375l7.546875 0zm5.514801 -5.25l2.71875 0l0 2.0l0.171875 0q0.453125 -1.046875 1.546875 -1.71875q1.109375 -0.6875 2.390625 -0.6875q0.9375 0 1.65625 0.265625l0 2.984375q-1.09375 -0.46875 -2.109375 -0.46875q-1.515625 0 -2.5 1.171875q-0.984375 1.171875 -0.984375 2.84375l0 7.203125l-2.890625 0l0 -13.59375z" fill-rule="nonzero"/><path fill="#000000" fill-opacity="0.0" d="m418.5 344.89697l0 42.614197" fill-rule="evenodd"/><path stroke="#3ddb85" stroke-width="4.0" stroke-linejoin="round" stroke-linecap="butt" d="m418.5 344.89697l0 18.614197" fill-rule="evenodd"/><path fill="#3ddb85" stroke="#3ddb85" stroke-width="4.0" stroke-linecap="butt" d="m411.89307 363.51117l6.6069336 18.152374l6.6069336 -18.152374z" fill-rule="evenodd"/><path fill="#000000" fill-opacity="0.0" d="m564.49475 165.07217l275.46454 0l0 67.87402l-275.46454 0z" fill-rule="evenodd"/><path fill="#3ddb85" d="m573.24866 180.17468q1.296875 0 2.53125 0.671875q1.25 0.671875 1.9375 1.921875q0.6875 1.234375 0.6875 2.5625q0 2.15625 -1.515625 3.671875q-1.5 1.5 -3.640625 1.5q-2.140625 0 -3.65625 -1.5q-1.5 -1.515625 -1.5 -3.671875q0 -1.34375 0.6875 -2.578125q0.6875 -1.234375 1.921875 -1.90625q1.25 -0.671875 2.546875 -0.671875z" fill-rule="nonzero"/><path fill="#000000" d="m600.3229 192.5028q-1.859375 0 -3.296875 -0.84375q-1.4375 -0.859375 -2.234375 -2.390625q-0.78125 -1.53125 -0.78125 -3.515625l0 -10.828125l2.03125 0l0 10.921875q0 2.09375 1.109375 3.40625q1.109375 1.296875 3.171875 1.296875q2.0625 0 3.171875 -1.296875q1.125 -1.3125 1.125 -3.40625l0 -10.921875l2.03125 0l0 10.828125q0 1.984375 -0.765625 3.53125q-0.75 1.53125 -2.1875 2.375q-1.4375 0.84375 -3.375 0.84375zm9.765686 -17.578125l2.03125 0l0 17.1875l-2.03125 0l0 -17.1875zm3.95813 17.1875l0 0zm12.521118 0.390625q-1.75 0 -3.140625 -0.84375q-1.390625 -0.84375 -2.171875 -2.3125q-0.78125 -1.484375 -0.78125 -3.328125q0 -1.75 0.734375 -3.25q0.734375 -1.5 2.09375 -2.390625q1.359375 -0.890625 3.109375 -0.890625q1.796875 0 3.109375 0.8125q1.328125 0.796875 2.03125 2.21875q0.703125 1.40625 0.703125 3.234375q0 0.28125 -0.046875 0.625l-9.6875 0q0.0625 1.390625 0.65625 2.359375q0.609375 0.953125 1.53125 1.4375q0.9375 0.46875 1.9375 0.46875q2.40625 0 3.625 -2.203125l1.734375 0.84375q-0.78125 1.453125 -2.15625 2.34375q-1.359375 0.875 -3.28125 0.875zm3.53125 -7.8125q-0.046875 -0.765625 -0.4375 -1.53125q-0.375 -0.765625 -1.1875 -1.296875q-0.8125 -0.53125 -2.0625 -0.53125q-1.4375 0 -2.453125 0.9375q-1.0 0.921875 -1.3125 2.421875l7.453125 0zm4.543213 -9.765625l2.03125 0l0 17.1875l-2.03125 0l0 -17.1875zm10.38147 17.578125q-1.75 0 -3.140625 -0.84375q-1.390625 -0.84375 -2.171875 -2.3125q-0.78125 -1.484375 -0.78125 -3.328125q0 -1.75 0.734375 -3.25q0.734375 -1.5 2.09375 -2.390625q1.359375 -0.890625 3.109375 -0.890625q1.796875 0 3.109375 0.8125q1.328125 0.796875 2.03125 2.21875q0.703125 1.40625 0.703125 3.234375q0 0.28125 -0.046875 0.625l-9.6875 0q0.0625 1.390625 0.65625 2.359375q0.609375 0.953125 1.53125 1.4375q0.9375 0.46875 1.9375 0.46875q2.40625 0 3.625 -2.203125l1.734375 0.84375q-0.78125 1.453125 -2.15625 2.34375q-1.359375 0.875 -3.28125 0.875zm3.53125 -7.8125q-0.046875 -0.765625 -0.4375 -1.53125q-0.375 -0.765625 -1.1875 -1.296875q-0.8125 -0.53125 -2.0625 -0.53125q-1.4375 0 -2.453125 0.9375q-1.0 0.921875 -1.3125 2.421875l7.453125 0zm4.543213 -4.8125l1.9375 0l0 1.796875l0.09375 0q0.53125 -0.9375 1.578125 -1.5625q1.0625 -0.625 2.25 -0.625q1.34375 0 2.328125 0.65625q1.0 0.640625 1.4375 1.71875q0.640625 -1.078125 1.703125 -1.71875q1.078125 -0.65625 2.5 -0.65625q2.109375 0 3.171875 1.28125q1.0625 1.28125 1.0625 3.5l0 7.84375l-2.015625 0l0 -7.53125q0 -1.703125 -0.703125 -2.46875q-0.6875 -0.78125 -2.046875 -0.78125q-0.921875 0 -1.671875 0.53125q-0.734375 0.53125 -1.15625 1.421875q-0.421875 0.890625 -0.421875 1.921875l0 6.90625l-2.03125 0l0 -7.515625q0 -1.71875 -0.703125 -2.484375q-0.6875 -0.78125 -2.03125 -0.78125q-0.921875 0 -1.671875 0.546875q-0.734375 0.53125 -1.15625 1.4375q-0.421875 0.90625 -0.421875 1.9375l0 6.859375l-2.03125 0l0 -12.234375zm26.461426 12.625q-1.75 0 -3.140625 -0.84375q-1.390625 -0.84375 -2.171875 -2.3125q-0.78125 -1.484375 -0.78125 -3.328125q0 -1.75 0.734375 -3.25q0.734375 -1.5 2.09375 -2.390625q1.359375 -0.890625 3.109375 -0.890625q1.796875 0 3.109375 0.8125q1.328125 0.796875 2.03125 2.21875q0.703125 1.40625 0.703125 3.234375q0 0.28125 -0.046875 0.625l-9.6875 0q0.0625 1.390625 0.65625 2.359375q0.609375 0.953125 1.53125 1.4375q0.9375 0.46875 1.9375 0.46875q2.40625 0 3.625 -2.203125l1.734375 0.84375q-0.78125 1.453125 -2.15625 2.34375q-1.359375 0.875 -3.28125 0.875zm3.53125 -7.8125q-0.046875 -0.765625 -0.4375 -1.53125q-0.375 -0.765625 -1.1875 -1.296875q-0.8125 -0.53125 -2.0625 -0.53125q-1.4375 0 -2.453125 0.9375q-1.0 0.921875 -1.3125 2.421875l7.453125 0zm4.543213 -4.8125l1.9375 0l0 1.796875l0.09375 0q0.515625 -0.921875 1.609375 -1.546875q1.109375 -0.640625 2.359375 -0.640625q2.203125 0 3.359375 1.28125q1.171875 1.28125 1.171875 3.5l0 7.84375l-2.03125 0l0 -7.53125q0 -1.703125 -0.828125 -2.46875q-0.8125 -0.78125 -2.234375 -0.78125q-0.984375 0 -1.765625 0.5625q-0.765625 0.546875 -1.203125 1.453125q-0.4375 0.890625 -0.4375 1.875l0 6.890625l-2.03125 0l0 -12.234375zm17.567078 12.421875q-0.75 0 -1.390625 -0.234375q-0.625 -0.234375 -1.0625 -0.65625q-0.953125 -0.90625 -0.953125 -2.515625l0 -7.171875l-2.140625 0l0 -1.84375l2.140625 0l0 -3.46875l2.03125 0l0 3.46875l3.0 0l0 1.84375l-3.0 0l0 6.671875q0 1.0 0.390625 1.484375q0.453125 0.53125 1.3125 0.53125q0.75 0 1.34375 -0.40625l0 1.984375q-0.359375 0.171875 -0.734375 0.234375q-0.359375 0.078125 -0.9375 0.078125zm8.586487 0.203125q-1.96875 0 -3.296875 -0.921875q-1.3125 -0.9375 -1.859375 -2.375l1.828125 -0.8125q0.453125 1.109375 1.34375 1.703125q0.90625 0.59375 1.984375 0.59375q1.15625 0 1.96875 -0.46875q0.8125 -0.46875 0.8125 -1.328125q0 -0.765625 -0.65625 -1.234375q-0.640625 -0.46875 -2.03125 -0.796875l-1.484375 -0.390625q-1.46875 -0.359375 -2.40625 -1.21875q-0.921875 -0.875 -0.921875 -2.234375q0 -1.0625 0.625 -1.859375q0.640625 -0.8125 1.6875 -1.234375q1.0625 -0.4375 2.28125 -0.4375q1.609375 0 2.875 0.703125q1.265625 0.6875 1.78125 1.9375l-1.765625 0.8125q-0.8125 -1.625 -2.90625 -1.625q-1.015625 0 -1.765625 0.46875q-0.75 0.46875 -0.75 1.1875q0 0.671875 0.515625 1.09375q0.53125 0.421875 1.59375 0.671875l1.78125 0.46875q1.796875 0.453125 2.703125 1.359375q0.90625 0.890625 0.90625 2.1875q0 1.125 -0.640625 1.984375q-0.640625 0.84375 -1.75 1.3125q-1.109375 0.453125 -2.453125 0.453125zm6.7894897 -17.578125l1.859375 0l0 5.3125l-1.859375 0l0 -5.3125zm3.1011963 17.1875l0 0zm11.349243 0.390625q-1.96875 0 -3.296875 -0.921875q-1.3125 -0.9375 -1.859375 -2.375l1.828125 -0.8125q0.453125 1.109375 1.34375 1.703125q0.90625 0.59375 1.984375 0.59375q1.15625 0 1.96875 -0.46875q0.8125 -0.46875 0.8125 -1.328125q0 -0.765625 -0.65625 -1.234375q-0.640625 -0.46875 -2.03125 -0.796875l-1.484375 -0.390625q-1.46875 -0.359375 -2.40625 -1.21875q-0.921875 -0.875 -0.921875 -2.234375q0 -1.0625 0.625 -1.859375q0.640625 -0.8125 1.6875 -1.234375q1.0625 -0.4375 2.28125 -0.4375q1.609375 0 2.875 0.703125q1.265625 0.6875 1.78125 1.9375l-1.765625 0.8125q-0.8125 -1.625 -2.90625 -1.625q-1.015625 0 -1.765625 0.46875q-0.75 0.46875 -0.75 1.1875q0 0.671875 0.515625 1.09375q0.53125 0.421875 1.59375 0.671875l1.78125 0.46875q1.796875 0.453125 2.703125 1.359375q0.90625 0.890625 0.90625 2.1875q0 1.125 -0.640625 1.984375q-0.640625 0.84375 -1.75 1.3125q-1.109375 0.453125 -2.453125 0.453125zm11.669495 -0.203125q-0.75 0 -1.390625 -0.234375q-0.625 -0.234375 -1.0625 -0.65625q-0.953125 -0.90625 -0.953125 -2.515625l0 -7.171875l-2.140625 0l0 -1.84375l2.140625 0l0 -3.46875l2.03125 0l0 3.46875l3.0 0l0 1.84375l-3.0 0l0 6.671875q0 1.0 0.390625 1.484375q0.453125 0.53125 1.3125 0.53125q0.75 0 1.34375 -0.40625l0 1.984375q-0.359375 0.171875 -0.734375 0.234375q-0.359375 0.078125 -0.9375 0.078125zm7.7470703 0.203125q-1.34375 0 -2.40625 -0.53125q-1.046875 -0.53125 -1.625 -1.453125q-0.578125 -0.921875 -0.578125 -2.109375q0 -1.9375 1.46875 -3.03125q1.46875 -1.09375 3.6875 -1.09375q1.109375 0 2.046875 0.25q0.953125 0.234375 1.46875 0.546875l0 -0.75q0 -1.359375 -0.96875 -2.1875q-0.953125 -0.828125 -2.421875 -0.828125q-1.0 0 -1.875 0.453125q-0.875 0.4375 -1.390625 1.21875l-1.53125 -1.140625q0.71875 -1.109375 1.984375 -1.734375q1.28125 -0.625 2.8125 -0.625q2.5 0 3.90625 1.3125q1.421875 1.296875 1.421875 3.5625l0 7.75l-1.9375 0l0 -1.75l-0.09375 0q-0.53125 0.890625 -1.59375 1.515625q-1.046875 0.625 -2.375 0.625zm0.1875 -1.8125q1.03125 0 1.921875 -0.515625q0.890625 -0.53125 1.421875 -1.421875q0.53125 -0.890625 0.53125 -1.9375q-0.578125 -0.390625 -1.421875 -0.625q-0.84375 -0.25 -1.78125 -0.25q-1.671875 0 -2.53125 0.703125q-0.84375 0.6875 -0.84375 1.796875q0 1.015625 0.765625 1.640625q0.765625 0.609375 1.9375 0.609375zm13.113342 1.609375q-0.75 0 -1.390625 -0.234375q-0.625 -0.234375 -1.0625 -0.65625q-0.953125 -0.90625 -0.953125 -2.515625l0 -7.171875l-2.140625 0l0 -1.84375l2.140625 0l0 -3.46875l2.03125 0l0 3.46875l3.0 0l0 1.84375l-3.0 0l0 6.671875q0 1.0 0.390625 1.484375q0.453125 0.53125 1.3125 0.53125q0.75 0 1.34375 -0.40625l0 1.984375q-0.359375 0.171875 -0.734375 0.234375q-0.359375 0.078125 -0.9375 0.078125zm8.990356 0.203125q-1.75 0 -3.140625 -0.84375q-1.390625 -0.84375 -2.171875 -2.3125q-0.78125 -1.484375 -0.78125 -3.328125q0 -1.75 0.734375 -3.25q0.734375 -1.5 2.09375 -2.390625q1.359375 -0.890625 3.109375 -0.890625q1.796875 0 3.109375 0.8125q1.328125 0.796875 2.03125 2.21875q0.703125 1.40625 0.703125 3.234375q0 0.28125 -0.046875 0.625l-9.6875 0q0.0625 1.390625 0.65625 2.359375q0.609375 0.953125 1.53125 1.4375q0.9375 0.46875 1.9375 0.46875q2.40625 0 3.625 -2.203125l1.734375 0.84375q-0.78125 1.453125 -2.15625 2.34375q-1.359375 0.875 -3.28125 0.875zm3.53125 -7.8125q-0.046875 -0.765625 -0.4375 -1.53125q-0.375 -0.765625 -1.1875 -1.296875q-0.8125 -0.53125 -2.0625 -0.53125q-1.4375 0 -2.453125 0.9375q-1.0 0.921875 -1.3125 2.421875l7.453125 0z" fill-rule="nonzero"/><path fill="#3ddb85" d="m573.24866 208.97467q1.296875 0 2.53125 0.671875q1.25 0.671875 1.9375 1.921875q0.6875 1.234375 0.6875 2.5625q0 2.15625 -1.515625 3.671875q-1.5 1.5 -3.640625 1.5q-2.140625 0 -3.65625 -1.5q-1.5 -1.515625 -1.5 -3.671875q0 -1.34375 0.6875 -2.578125q0.6875 -1.234375 1.921875 -1.90625q1.25 -0.671875 2.546875 -0.671875z" fill-rule="nonzero"/><path fill="#000000" d="m600.3229 221.3028q-1.859375 0 -3.296875 -0.84375q-1.4375 -0.859375 -2.234375 -2.390625q-0.78125 -1.53125 -0.78125 -3.515625l0 -10.828125l2.03125 0l0 10.921875q0 2.09375 1.109375 3.40625q1.109375 1.296875 3.171875 1.296875q2.0625 0 3.171875 -1.296875q1.125 -1.3125 1.125 -3.40625l0 -10.921875l2.03125 0l0 10.828125q0 1.984375 -0.765625 3.53125q-0.75 1.53125 -2.1875 2.375q-1.4375 0.84375 -3.375 0.84375zm9.765686 -17.578125l2.03125 0l0 17.1875l-2.03125 0l0 -17.1875zm3.95813 17.1875l0 0zm7.083618 -17.1875l2.03125 0l0 17.1875l-2.03125 0l0 -17.1875zm10.584595 17.578125q-1.796875 0 -3.25 -0.859375q-1.4375 -0.875 -2.25 -2.359375q-0.796875 -1.484375 -0.796875 -3.296875q0 -1.796875 0.796875 -3.28125q0.8125 -1.484375 2.25 -2.34375q1.453125 -0.875 3.25 -0.875q1.796875 0 3.234375 0.875q1.4375 0.859375 2.234375 2.34375q0.8125 1.484375 0.8125 3.28125q0 1.8125 -0.8125 3.296875q-0.796875 1.484375 -2.234375 2.359375q-1.4375 0.859375 -3.234375 0.859375zm0 -1.859375q1.125 0 2.09375 -0.5625q0.96875 -0.5625 1.5625 -1.609375q0.59375 -1.0625 0.59375 -2.484375q0 -1.40625 -0.59375 -2.453125q-0.59375 -1.0625 -1.5625 -1.625q-0.96875 -0.578125 -2.09375 -0.578125q-1.125 0 -2.109375 0.578125q-0.984375 0.5625 -1.578125 1.625q-0.59375 1.046875 -0.59375 2.453125q0 1.421875 0.59375 2.484375q0.59375 1.046875 1.578125 1.609375q0.984375 0.5625 2.109375 0.5625zm14.03833 7.03125q-2.15625 0 -3.5625 -1.015625q-1.40625 -1.0 -1.890625 -2.40625l1.875 -0.796875q0.390625 1.0625 1.328125 1.71875q0.953125 0.65625 2.25 0.65625q1.890625 0 2.9375 -1.109375q1.046875 -1.09375 1.046875 -3.109375l0 -1.375l-0.09375 0q-0.609375 0.9375 -1.703125 1.53125q-1.09375 0.578125 -2.484375 0.578125q-1.578125 0 -2.890625 -0.8125q-1.296875 -0.8125 -2.078125 -2.265625q-0.765625 -1.46875 -0.765625 -3.34375q0 -1.859375 0.765625 -3.328125q0.78125 -1.46875 2.078125 -2.28125q1.3125 -0.828125 2.890625 -0.828125q1.390625 0 2.484375 0.59375q1.09375 0.578125 1.703125 1.546875l0.09375 0l0 -1.75l1.9375 0l0 11.75q0 2.953125 -1.640625 4.5q-1.625 1.546875 -4.28125 1.546875zm0 -7.171875q1.09375 0 2.0 -0.546875q0.90625 -0.5625 1.4375 -1.59375q0.546875 -1.03125 0.546875 -2.4375q0 -1.4375 -0.546875 -2.46875q-0.53125 -1.046875 -1.4375 -1.578125q-0.90625 -0.546875 -2.0 -0.546875q-1.109375 0 -2.03125 0.5625q-0.90625 0.546875 -1.453125 1.578125q-0.53125 1.03125 -0.53125 2.453125q0 1.40625 0.53125 2.453125q0.546875 1.046875 1.453125 1.59375q0.921875 0.53125 2.03125 0.53125zm10.156067 -12.890625q-0.609375 0 -1.046875 -0.421875q-0.421875 -0.4375 -0.421875 -1.03125q0 -0.625 0.421875 -1.046875q0.4375 -0.421875 1.046875 -0.421875q0.625 0 1.03125 0.421875q0.421875 0.421875 0.421875 1.046875q0 0.59375 -0.421875 1.03125q-0.40625 0.421875 -1.03125 0.421875zm-1.015625 2.265625l2.046875 0l0 12.234375l-2.046875 0l0 -12.234375zm10.663391 12.625q-1.78125 0 -3.203125 -0.84375q-1.40625 -0.859375 -2.203125 -2.328125q-0.796875 -1.484375 -0.796875 -3.34375q0 -1.84375 0.796875 -3.328125q0.796875 -1.484375 2.203125 -2.328125q1.421875 -0.84375 3.203125 -0.84375q1.984375 0 3.34375 0.921875q1.359375 0.921875 1.9375 2.46875l-1.859375 0.765625q-0.453125 -1.125 -1.359375 -1.71875q-0.890625 -0.59375 -2.171875 -0.59375q-1.078125 0 -2.015625 0.59375q-0.921875 0.59375 -1.5 1.65625q-0.5625 1.046875 -0.5625 2.40625q0 1.375 0.5625 2.4375q0.578125 1.046875 1.5 1.640625q0.9375 0.578125 2.015625 0.578125q1.296875 0 2.234375 -0.59375q0.9375 -0.59375 1.390625 -1.703125l1.828125 0.765625q-0.625 1.515625 -2.0 2.453125q-1.375 0.9375 -3.34375 0.9375z" fill-rule="nonzero"/></g></svg>